/* XPM */
static char *_03cb82397754df8ffe49be2176fddddEDNKa9n1TpnpJCTd[] = {
/* columns rows colors chars-per-pixel */
"64 64 159 2 ",
"   c #020202",
".  c #0B0505",
"X  c #080708",
"o  c #0B0B0B",
"O  c #110607",
"+  c #130708",
"@  c #131313",
"#  c #181717",
"$  c #1D1D1D",
"%  c #230C0C",
"&  c #201F1F",
"*  c #3F1312",
"=  c #3F1815",
"-  c #3A1D1C",
";  c #232323",
":  c #2B2B2B",
">  c #343434",
",  c #3C3C3C",
"<  c #401312",
"1  c #441A17",
"2  c #531C19",
"3  c #591D1C",
"4  c #6C271F",
"5  c #6B2321",
"6  c #732420",
"7  c #7F2B27",
"8  c #3F7D00",
"9  c #467E01",
"0  c #497E01",
"q  c #4C7E0A",
"w  c #444444",
"e  c #4B4B4B",
"r  c #535353",
"t  c #5C5C5C",
"y  c #636363",
"u  c #686768",
"i  c #6C6C6C",
"p  c #737373",
"a  c #7B7B7B",
"s  c #942F2B",
"d  c #B4362E",
"f  c #A83930",
"g  c #BD5A3A",
"h  c #DA4C39",
"j  c #CC543C",
"k  c #D3563B",
"l  c #DC523D",
"z  c #E64538",
"x  c #EB473A",
"c  c #F35F3D",
"v  c #DB6C40",
"b  c #D27141",
"n  c #F66A40",
"m  c #468201",
"M  c #4C8301",
"N  c #4D8900",
"B  c #4C8309",
"V  c #518502",
"C  c #528A01",
"Z  c #598E03",
"A  c #52840C",
"S  c #548809",
"D  c #569401",
"F  c #5C9501",
"G  c #579800",
"H  c #5D9A01",
"J  c #579508",
"K  c #5C940A",
"L  c #5D990B",
"P  c #4D8411",
"I  c #4F8910",
"U  c #558515",
"Y  c #5E9311",
"T  c #619603",
"R  c #629A02",
"E  c #61960A",
"W  c #629A0A",
"Q  c #609511",
"!  c #649914",
"~  c #5EA401",
"^  c #5FA801",
"/  c #5FA40B",
"(  c #61A400",
")  c #62A700",
"_  c #65A601",
"`  c #63A204",
"'  c #64A605",
"]  c #68A603",
"[  c #62A901",
"{  c #65A900",
"}  c #65A901",
"|  c #69AB02",
" . c #68AC00",
".. c #6CAE00",
"X. c #69AA05",
"o. c #64A50A",
"O. c #69A50B",
"+. c #65A90A",
"@. c #69AA0B",
"#. c #70AC0C",
"$. c #6FB00C",
"%. c #7DBF06",
"&. c #67A511",
"*. c #6AA515",
"=. c #6BAA12",
"-. c #6BA51A",
";. c #67A81A",
":. c #7FBF11",
">. c #7BC103",
",. c #7DC401",
"<. c #7EC600",
"1. c #7EC800",
"2. c #7EC30A",
"3. c #82C502",
"4. c #82C503",
"5. c #81C207",
"6. c #88C707",
"7. c #86C902",
"8. c #84CA02",
"9. c #86C905",
"0. c #89CB04",
"q. c #81C20A",
"w. c #82C40B",
"e. c #88C30F",
"r. c #85CA0B",
"t. c #89CC0B",
"y. c #86D001",
"u. c #89D102",
"i. c #83C312",
"p. c #88C510",
"a. c #87CA12",
"s. c #8ACF12",
"d. c #85C71D",
"f. c #8ED110",
"g. c #F4A94F",
"h. c #F3A352",
"j. c #F4AC55",
"k. c #EFB355",
"l. c #F7CA5A",
"z. c #F9CC59",
"x. c #838283",
"c. c #8C8C8C",
"v. c #949494",
"b. c #979897",
"n. c #9D9D9D",
"m. c #A2A2A2",
"M. c #A8A7A8",
"N. c #ACACAC",
"B. c #B3B3B3",
"V. c #BCBCBC",
"C. c #C4C4C4",
"Z. c #CCCCCC",
"A. c #D0CFCF",
"S. c #D4D4D4",
"D. c #DDDDDD",
"F. c #E3E3E3",
"G. c #ECECEC",
"H. c #F4F4F4",
"J. c #FDFDFD",
/* pixels */
"F H T H _ )  ._ H ) X.R R 4.9.w.] H ! F F F F M T F H R K R K { T F F H 4.O.=.) K F T H ] _ { ) H K T T ` { { / F H K K  .2.4.w.",
"T T F F H H H F o.H F W L N 9 M H D F H B M C q.T K H R M V M ) T R T 5...M m N E T F D M q.w.t.{ E T T H { { { R F H F { X.X.) ",
"F T T T F D E E ] H F H T 9 9 V T W R R M M M 8.F K H X.9 M M { D D F 8.o.9 M M F H W R 9 t.,.,.) K F T K ' ) { F D T H ) ~ X.{ ",
"F T F T H H T T ` T E D K S S 9 Q K D F U 9 M 8.E T F | M M C ` W R H 5.O.M C 9 W D E F M w.8.t...K F E E ' ) { E T T E  .{ { ) ",
"H F D H _ { _ F T M M M ` ,.8.8.F T R T 8.9.4.O.F F R q.@.' H H F H D $.) F E K T D E T H ] ) ^ ,.C M V K G H H D T F E ,. .) o.",
"H H K F ' ) o.K R M M M ' 0.0.4.T F T K 9.4.8.' H T T ,.{ { { R E H F O.{ F R E F W F F R o.o.' 9.V 9 9 E H H T R F T H t.{ ) ' ",
"H F W F { { { G D M M m  .,.8.w.T F T F 8.u.8.o.K E F 9.{ { ) F F F R o.X.H R F D R F H F _ ' X.4.M M V T H K F F F F H w.X.@.` ",
"T F T T 2.8.r.{ H ` ' { w. .) { F M M M o.{ ) { M M M 8.) +.) H T R H _ m L H T E _ O.` L { H.B.m.N.H.J.F H K T ) w.0.q.) M M M ",
") M V M ) ^  .q.M ) @.~ ` M V M H X.o.^ ' _ ` M H T F B _ { ) H o.) @.L H F T F o._ { { J _ F.; X # C.M | B M M ] 8.w.2._ H H E ",
"9.T T F R J H 8.B { ) X.N K K K H ) ^ { H H H K o.X._ K F H D T  .{ ) H _ 5.0.0.V F F H M M., i p i , c.8.E F D M 4.8.9.| H R K ",
"4.F T F H H F 0.P { ) ) M K W F F {  .| K K F T ^ ) { F R F T T X.{ ' H ] a.4.,.9 K L T N.r X t c.b.@ t 4.H R R 9 6.8.8._ Z R F ",
"t.W K ! E W F w.M _ o.X.N D H H F _ { ) H R F H X.| _ H G H W F ) ) @.H o.,.y.8.C D H.F.>       e b.$ t H.F F F M i.8.4.X.K R F ",
") >.u.>.F T K | F G H H q.O.#.) Y C.n.: # y T W M 9 A R 2.8.J.H t.8.2. .F ) ) ) i.@.C.: o       e n.c.r , G.' ' M _ _ _ T F F F ",
"'  .^ +.M M M H { @.o.@.4.T F S.i t r e e r y y y y y y y i D.H M M M R H.x.y y y y e           e m.m.e # F.) ^ ) H H F F E F R ",
"&.' ) ' M V M H { ) ~ ) 0.T F M.o p m.m.m.t       X X X X @ v.Z.C.C.C.C.B.; X X X X o o X       w v.n.e $ F.+.{ | H H H T T D D ",
"_ )  .) q A q H o.{ { { w.T F N.o p m.n.m.t     $ > > > > > # o o o o o o : > > > > > > @       o ; b.e $ F.~ ) X.F H H F H T T ",
"H _ | _ M M M ` H X._ _ M L x.e y y p n.m.t     ; > # # ; > ; ; ; $ e r ; > > > > r i , : ; $ o   # b.e $ F.H H ] H F F K T T K ",
"H K K W H T F T H F K W F C w $ n.y t c.x.e     ; :     @ : : > > > i a e , > , w a b.r , , e $ X @ p , $ F.q.9.M D T T K M M M ",
"T F F F T F F F R F F T F 9 e ; b.n.a , # X X   ; : . . . X   $ > > > r n.e > , c.n.n.n.r r b.e $ X o   $ F.9.8.9 R T T F M B M ",
"H R R H H D K F F R F R Z , ; , n.m.b.a # : p o o - f d 6     o # > > r n.c.y > e a n.n.r r n.c.t ; X   $ F.4.4.N D T E F M M M ",
"H o.` ' { | ' H D w.w.9.R @ > y a a p p w a Z.o   * x n g 2 O   X ; : r n.m.c.r > i m.n.i i n.m.x.r o   $ F.w.9.q.H T D R Z T E ",
"H X.{ { ) ) ) H H 8.8.,.L # t c., , : o M.) C.o   * z j.h.h = .     ; r n.n.n.b.w i n.n.n.n.n.n.n.c.#   $ F.4.4.0.H H T T ! H F ",
"H ] _ ) { ) @.H H 4.0.4.G # ; r c.v.y o M.) C.o   < x j.z.k.j 5     t b.n.n.n.n.c.b.n.n.n.n.n.m.i $ X   $ F.9.8.4.H F F H F H R ",
"F K F H ,.8.r.` B ] ` | N # , i i i e o M.H D.t $ % 7 b g.l.c 7     i m.n.n.n.n.n.n.n.n.n.n.n.m.t       $ F.9.w.0.M M S 0.F W K ",
"w.M M M X.~ { 8.m { _  .o.# r c.w w : o M.H J.6.w     s v k.k 5     i m.n.n.n.n.n.n.n.n.n.n.n.b.r X ; @ $ F.q M 9.' ^ { 6.T T T ",
"8.M V 9 { ~ { 8.M ) ~ { ' # ; r b.n.i o M.H J.8.w     + 4 l 1 .     i m.n.n.n.n.n.n.n.n.n.n.n.> X $ Z.u $ F.S M 4.) ^ { 6.D F F ",
"q.0 0 9 ..) ) 6.M &.=.X.{ # $ , t t w o N.H J.J.m.r X   % 3 O > i i c.n.n.t , e b.n.n.n.n.n.n.;   & F.p # G.M M 4.{ { { w.R T F ",
"| w.8.w._ @.) 8.` N 8 m ) # $ , e e w > a C.F J.w.M.X   X o o t m.m.n.b.a ;   o i c.n.n.n.n.n.t ; $ F.p @ c.b.B._ ` _ ) { D F R ",
"M 9.0.4.M M M o.| K W L | # $ e b.n.n.b.; e G.G.H.n.X   # > > i n.n.n.a @ X     X t m.n.n.n.n.D.c.$ F.a X X X , H.N N N _ H H D ",
"A 4.8.8.M 9 M @._ F H D ` @ e c.n.i e e > : ; ; ; # X $ : , a v.n.n.r w a ;       r N.D.F.Z.n.r $ $ F.F.n.o t C.' 9 B 0 X.F R E ",
"M 5.8.8.M A M ) X.H H R O.r t i p e > > : @ o , : @ X w t y b.n.m.V.p y V.x.w     r B.H.J.G.V.a y i v.n.a o w p p M V M ] H H F ",
"T M P m ` -._ H G X.] ) H W e o > > > > @ X $ c.y > o p n.b.b.n.M.H.C.B.H.H.v.    t B.H.H.H.H.J.J.F.> o   o o o # D R T F K H R ",
"H ' )  .[ ^ { 8.| F E F F T e o > , : o : : > , p p o > w w , i N.H.H.H.H.t #     a H.J.C.M.N.G.J.H.F.y # N.V.V.V.T T D S F F T ",
"H @.) ) ^ { X.8._ F K F T T n.e ; # $ ; > > , y c.x.o ; e i i t r p Z.J.H.,   o p C.J.J.c.e r S.J.H.S.t # T T F F F K E 9 F R F ",
"D o.| ' ' +.@.8.o.H F H F D T B.o # : > > , r n.b.a ; , y m.m.i : : N.J.H.y : w F.J.J.J.p ; > S.H.D.v.e > F H K K H F H N H F E ",
"T H F F _ { H { H _ ) O.m E W M.o p a > > y n.m.y e b.b.n.n.n.C.G.G.H.J.J.G.G.G.H.J.J.J.H.G.G.H.S.b.; t H F E K H ..` _ H a.r.4.",
"T T R F H H H ,.M H | _ a.R a > ; a a > i c.b.y w e n.n.n.n.y r t t t t t i m.J.J.J.J.J.J.J.J.Z.c., i V.R F F F ~ ~  .) d. .) X.",
"F M 9 M ) { ' w.F ` H F @.q.e o > x.c.r v.m.v., > e n.n.n.n.t e , @ o # w t n.J.J.J.J.J.Z.B.B.x.t > D.4.) W T F L F L E M ) { ^ ",
"K M M N o.X._ 8.T F K F ] w.e o > a n.n.n.n.v., > e n.n.n.n.n.Z.D.w , y H.H.H.J.J.J.J.H.t X o o e 4.8.9.| F D T T R F H m ) X.+.",
"K M M M ) { _ 8.T F T H _ 8.e o > x.m.n.n.n.v., y c.n.n.n.n.n.Z.H.S.Z.D.J.J.J.J.J.J.J.J.r $ m.m.C.r.8.,.| F K T F R T F C ' ) ^ ",
"T q.r.1.F T H _ H T R F M 8.e o > t x.n.n.n.v., p m.n.n.c.p b.B.S.S.S.S.S.S.S.S.S.S.S.S.r : i D.N ` X.) H F H F H o.~ X.J R T F ",
"e. .{ ) W T K N X.H T T M { w @ > > r n.n.n.v., p m.n.m.a , c.n.v.v.n.n.n.n.n.n.m.m.n.v.r : # c.F.H H R F E T T 9. . .{ H F T H ",
"4.~ X.) T T T 9 ) F T E M ; ; > > > r n.n.n.v., p m.n.m.a , v.p w w a m.n.n.n.m.F.C.c.w > e c.: r F F E T F F F 9.~ { @.H D F F ",
"t.{ { ) D R H N  .H H D M # $ > > > w y v.n.n.p c.n.n.n.c.p n.i > > r y y v.B.S.H.M.y i i a n., : r F.F K T T W r.{ _ ' H K T E ",
"w.) { { F F H _ q.H G R H # : w > w e e c.n.m.N.B.N.N.m.n.n.n.p w > > > : x.C.J.G.a , M.B.B.N.i > # c.S.F 6.8.,.) N M M H L F W ",
"+.m M M E E F M 0.' ) o.F # t c., a n.n.n.n.m.G.H.H.H.B.n.n.n.n.c., > : o a C.H.N.e > G.H.H.H.H.n.: o y M 4.8.t.{ F T F 4.R F F ",
") M S 9 F F R 9 ,.'  .@.F # a Z.x.v.n.n.n.n.m.H.J.J.J.G.Z.n.n.n.n.x.x.y   : w e , # > H.J.J.J.J.F.m.# t M t.,.4.) K E T 8.G H T ",
"_ 9 9 M T F R 9 8.o.^ o.T @ c.H.V.V.B.n.n.M.C.H.G.S.N.N.b.p N.N.m.V.M.c.r # o : : : e m.F.J.J.F.G.F.$ t M w.8.6.{ L D T 4.H W F ",
"M F T R H H H T `  .~ +.F @ c.J.J.J.D.m.n.V.G.G.V.a # o o $ Z.Z.M.H.V.B.H.w , T F R M.o m.J.H.N.C.F.$ t M ` _ | V K H H O.,.r.,.",
"H p.t.5._  .X.F N { ~ { H @ c.J.J.J.H.F.N.p > > ; > n.M.M.n., c.H.J.H.G.H.m.t : R Z N.o a B.B.D.H.F.$ t *.H H K F ' _ ' F 0.4.8.",
"H 4.4.8.) { ] H 0 @.) ) R @ c.J.J.J.J.H.a >       $ 4.F F F @ y D.H.J.J.J.S.a o T E Z.r t t t x.c.c.r n.] G F H R ) X.X.H w.6.8.",
"H ,.t.t.` ) o.H m _ X._ H @ c.J.J.J.H.A., @ # # @ > 4.R F T : r n.H.H.G.G.J.n.o T R H H w @ @ @ @ ; F W ` R R F F { ) ^ G w.0.8.",
"i.{ H { H H D H H M 9 N ) @ c.J.J.J.B.; b.F H M { { ' i.M M M r > G.C.m.m.G.n.o 9 9.w.,.) H H F E M 9 M _ D W K K ) {  .;.M B B ",
"{ ) ;.) F H H ) w.F E W _ a y y y y y p H D K 9 { ~ X.1.o.' X.r $ B.M.N.S.x.y a I ,.8.8.=.9 M M H ` _ O.8.H F T K s.,.1._ H F F ",
"{ ) / { H T F { 8.F F F ' 8.i & ; $ r F T F T V +.~ ) 8.+.' _ p > p a c.V.e t 4.9 8.4.8.) M S V F X.{ X.8.H F F F 8.8.8.| F T F ",
")  .^  .F T F ' 4.R T H +.,.9.8.0.F W T T E F M o.{  .,.) ~  .L B.# o o @ b.w.w.V 0.5.8. .m M 9 H ~ { X.8.G E F R 4.4.8.` K T T ",
"o.H H G H H F V O.8.4.4.H 8.8.r.M ) { ` K K F { M M q _ H H F F E n.v.v.b.) X.{ F 9.4.t.M 9.4.8.R K T K { M M M 8.2.8.9.M E F T ",
"M ) | @.i.4.i.D M 4.6.p.M _ ) ) E H H H F F T w.) { ' H ,.w.w.C F D T i.m { X.^ H ) _ ) B ) _ o.2.W T F | m M M 8.' X._ D R R Z ",
"M X.{ ~ 2.8.f.F M 4.8.8.M ) _ { F D H T T F T 8.{ X.X.J 0.4.0.9 F F W w.M _ { +.K ) ' ) B ) {  .t.H F F | 9 M S ,.) _ | F F H E ",
"M ` _ ..a.,.5.H M r.0.%.M o.@.) R D E F H T R 4.) X.) F 4.9.8.M T F F q.M { ) ' H X.) ) m ' ) { 9.H T E ` M M M 8.X.) | H L F H ",
"D H D H _ _ { _ L ] _ @.F G G H :.R K H _ O.o.r.B B 9 L @.) { +.F F R ` ] H H H F M M C H _ { ' 2.R F T H H H D ~ M 0 M H _ | ) ",
"R W K H F H H _ T H D F | 8.t.w. .F F F ) +.~  .D T T H M m N ^ E D H =.G ' _ ~ t.T F D E V B 9  .H T T F X.X.X.C K K K H ) {  .",
"F F F F F H H ' T T W H { 4.4.9.^ H W K ) { { ) R K F F S M m { T F H ) H ' { X.4.H F R D B M M ) H W E F ) ) ) 9 T R R F ' ~ ^ ",
"T F T T T F R ` F K L F _ t.4.8.o.H F T { ^ { { H K W F q V 9 | F E F _ L ' ) ) 8.F K R H M M B +.F T F H { { { q T R Z W )  .+."
};
