/* XPM */
static char *de270530c8ac4a8eeaded172251462cc5lws3S3p8544FtXa[] = {
/* columns rows colors chars-per-pixel */
"64 64 179 2 ",
"   c #16121E",
".  c #170E20",
"X  c #1C1624",
"o  c #1F1728",
"O  c #1F1928",
"+  c #211926",
"@  c #211B2A",
"#  c #26232E",
"$  c #272231",
"%  c #2A2533",
"&  c #2E2935",
"*  c #322B36",
"=  c #322C39",
"-  c #382F39",
";  c #35313C",
":  c #3A323D",
">  c #3F7D00",
",  c #467E01",
"<  c #4A7E01",
"1  c #4C7E0A",
"2  c #507F00",
"3  c #3B3541",
"4  c #3E3A45",
"5  c #403443",
"6  c #413A45",
"7  c #433E49",
"8  c #46414B",
"9  c #49434E",
"0  c #4E4953",
"q  c #564D55",
"w  c #55525B",
"e  c #5C5259",
"r  c #61575E",
"t  c #5B5861",
"y  c #645B61",
"u  c #6B6266",
"i  c #6B646B",
"p  c #69666E",
"a  c #72686C",
"s  c #6D6B72",
"d  c #726E76",
"f  c #717176",
"g  c #76757C",
"h  c #7A747A",
"j  c #79777E",
"k  c #847B7E",
"l  c #468201",
"z  c #4C8301",
"x  c #4D8900",
"c  c #4C8309",
"v  c #518402",
"b  c #518901",
"n  c #598E03",
"m  c #52840B",
"M  c #52880A",
"N  c #569401",
"B  c #5C9501",
"V  c #579800",
"C  c #5D9A01",
"Z  c #579508",
"A  c #5C940A",
"S  c #5D990B",
"D  c #4D8411",
"F  c #4F8910",
"G  c #598A13",
"H  c #5E9311",
"J  c #619603",
"K  c #629A02",
"L  c #61960A",
"P  c #629A0A",
"I  c #609511",
"U  c #649914",
"Y  c #689F10",
"T  c #5EA401",
"R  c #5FA901",
"E  c #5FA40B",
"W  c #61A400",
"Q  c #62A700",
"!  c #63A502",
"~  c #65A501",
"^  c #64A605",
"/  c #68A603",
"(  c #62A901",
")  c #65A901",
"_  c #6AAB02",
"`  c #68AC00",
"'  c #69AA05",
"]  c #64A40A",
"[  c #69A60A",
"{  c #65A90A",
"}  c #6AAA0B",
"|  c #70AC0C",
" . c #6DB10B",
".. c #7CBF09",
"X. c #67A511",
"o. c #6BAA12",
"O. c #69A718",
"+. c #6BA51A",
"@. c #7FBF11",
"#. c #7DC401",
"$. c #7EC900",
"%. c #7EC30A",
"&. c #82C502",
"*. c #82C503",
"=. c #88C704",
"-. c #86C902",
";. c #84CA02",
":. c #89CB04",
">. c #81C20A",
",. c #83C40B",
"<. c #88C30F",
"1. c #85CA0B",
"2. c #89CB0B",
"3. c #86D001",
"4. c #89D102",
"5. c #83C412",
"6. c #87C617",
"7. c #86CA12",
"8. c #8BCC11",
"9. c #8ED110",
"0. c #7D7B84",
"q. c #7E7C88",
"w. c #807D85",
"e. c #897E81",
"r. c #848287",
"t. c #8E8385",
"y. c #84838B",
"u. c #89878D",
"i. c #8A898E",
"p. c #908486",
"a. c #918689",
"s. c #968B8B",
"d. c #998C8C",
"f. c #9A908F",
"g. c #8E8E94",
"h. c #959195",
"j. c #9C9393",
"k. c #9A9799",
"l. c #9B979B",
"z. c #9F9A9A",
"x. c #A29797",
"c. c #A29A9B",
"v. c #A6A19F",
"b. c #9D9CA3",
"n. c #A29FA1",
"m. c #A6A1A1",
"M. c #A9A4A5",
"N. c #A4A4A9",
"B. c #A9A7AC",
"V. c #A9A8AA",
"C. c #ACABAD",
"Z. c #B0ADAD",
"A. c #AEAEB3",
"S. c #B1AFB4",
"D. c #B4B3B4",
"F. c #B9B5B5",
"G. c #B6B7B9",
"H. c #B8B7B8",
"J. c #B6B8B9",
"K. c #B9BABC",
"L. c #BEBDC2",
"P. c #C1BFC1",
"I. c #C3C4C4",
"U. c #C9C8C6",
"Y. c #C7C8CB",
"T. c #CBCCCD",
"R. c #D1D1CE",
"E. c #CCCED3",
"W. c #CFD1D6",
"Q. c #D3D3D5",
"!. c #D4D6DA",
"~. c #D6D8D9",
"^. c #DCDDDE",
"/. c #DEE0DF",
"(. c #DBDDE2",
"). c #DDE0E3",
"_. c gray88",
"`. c #F6FCFD",
"'. c #F9FDFE",
/* pixels */
"B C J C ~ Q ` ~ C Q ' K K *.1.,./ C U B B B B z J B C K A K A ) J B B C *.[ o.Q A B J C / ~ ) Q C A J J Q ( ( E B C A A ` %.*.,.",
"J J B B C C C B ] C B P S z , z C N B C c z b >.J A C K z v z Q J K J *._ z l x L J B N z >.,.2.) L J J C ) ( ( K B C B ) ' ' Q ",
"B J J J B N L L / C B C J , , v J P K K z z z ;.B A C ' , z z ) N N B ;.] , z z B C P K , 2.#.#.Q A B J A ^ Q ( B N J C Q T ' ) ",
"B J B J C C J J Q J L N A M M z I A N B G , z ;.L J B / z z b Q P K C *.[ z b , P N L B z ,.;.1._ A B L L ^ Q ) L J J L ` ( ( Q ",
"C B N C ~ ) ~ B J z z z Q #.;.;.B J K J ;.1.*.[ B B K >.} ^ C C B C N  .Q B L A J N L J C / Q T #.b z v A B C C N J B L #.` Q ] ",
"C C A B ^ Q ] A K z z z ^ :.:.*.J B J A 1.*.;.Q C J J #.) ( ) K L C B [ ) B K L B P B B K ] ] ^ 1.v , , L C C J K B J C 2.( Q ^ ",
"C B P B ) ( ) V A z z l ` #.;.,.J B J B ;.4.;.] A L B 1.) ( Q B B B K ] ' C K B N K B C B ~ ^ ' *.z z v J C A B B B B C ,.' } Q ",
"J B J J %.;.1.) C ] ^ ( ,.` Q ) B z z z ] ) Q ) z z z ;.Q { Q C J K C ~ l S C J L ~ [ ] S ( ( ( 1.A J B B C A J ~ ,.:.>.Q z z z ",
"Q z v z Q T ` >.z Q } T Q z v z C ' ] T ^ ~ ] z C J B c ~ ) Q C ^ Q } S C B J B ] ~ ) ) Z ~ ) Q ] z , z / c z z / ;.,.%.~ C C L ",
"1.J J B K Z C ;.c ) Q ' x A A A C Q T ) C C C A ^ ' ~ A B C N J ` ( Q C ~ *.=.=.v B B C z C C C ` ^ ) ' ;.L B N z *.;.1./ C K L ",
"*.B J B C C B =.D ) Q Q z A P B B ) ` / A A B J T Q ) B K B J J ' ) ^ C ^ 7.*.#., A S J m J B B R ( ) Q *.C K K , 1.;.;.~ n K B ",
"2.P A U L P B ,.z ~ ] ' x B C C B ~ ) Q C K B C ' / ~ C V C P B Q Q } C ] #.3.;.b N B B < K B J ' ] Q ^ 1.B B B z 5.;.*.' A K B ",
"Q #.4.#.B J A / B V C C >.[ | Q H x z z N B J P z , m K %.;.#.C :.*.%./ C ) Q ^ 5.} ] ~ z J C C B B B Q ,.) { ^ z ~ ~ ~ J B B B ",
"^ ` R { z z z C ) } ^ } *.J B C J B C P 8.=.#.` J J B >.(  .Q C z z z K c ~ Q ) ;.Q Q ) N ~ ^ Q J K B N ) Q Q R Q C C B B L B K ",
"X.^ Q ^ z v z C ) Q T Q =.J B C B J B N *.=.;.( C B J 1.`.`.`.`.`.`., / c ) ) ( ;.Q { ) C ' Q ( B J L A Q ` { ) / C C C J J N N ",
"~ Q ` Q 1 m 1 C ] ( ( ) ,.J B A B L B L 2.;.#.{ C C A '.'.'.'.'.'.'.'._ c T ` T ;.) { T C ~ Q ` J B C S Q ) T ( ' B C C B C J J ",
"C ~ / ~ z z z ] C ' ~ ~ z S B C C J B K %.$.$./ K N K Q.Q.Q.Q.Q.Q.Q.~.;.H v , z ) c 1 z / ;.>.;.) C J B Y C C C / C B B A J J A ",
"C A A P C J B J C B A P B b z z Q P J N ) ) Q z *.'.Q.: = = = = = & y.'.`.B P B ~ c z z ..} ] ` ^ C B J K *.>.1.z N J J A z z z ",
"J B B B J B B B K B B J B , z m Q C J A ^ ( Q c `.'.!.= @ @ + o O X y.'.'.J B K Q z z z ;.Q Q ) ] K J N B :.1.;., K J J B z c z ",
"C K K C C N A B B K B K n b z , ` B J C Q ( ) x ;.`.!.= @ w u.u.u.u.u.r.i.^.'.`.`.`.z z #.) ' C ~ B J B B ;.*.*.x N J L B z z z ",
"C ] Q ^ ) / ^ C N ,.,.1.K Q ~ ` %.L B A ~ ( ` B ^ `.!.= O 0.).^.^._.u.X & Q.'.'.'.'.J J ~ , z b K N J L C 1.,.1.>.C J N K n J L ",
"C ' ) ) Q Q Q C C ;.;.#.C ^ ^ Q ;.C B C ) Q ~ A ) `.!.= O j Q.Q.Q.Q.y.@ & A.W.E.E.Q.B B } z , < C B A L N ;.*.*.=.C C J J U C B ",
"C / ~ Q ( Q } C C *.:.*.B ` `.`.`.`.`.J ) Q Q B T '.!.= @ s K.K.K.K.f @ @ % & = 3 7 W.'.`.z z m B L B B C ;.1.;.*.C B B C A J K ",
"B A B C #.;.1.Q c / ] / x #.'.'.'.'.'.z B C C J ( '.!.* X p K.G.G.K.s + @ O @ & % * W.'.'.B A J C J B C ^ *.1.,.=.z z M =.B P A ",
",.z z z ' T ) ;.l ) ~ ` ] ;.g.0.0.q.0.B.B C A =.y.0.0.w.r.h.m.M.I.T.l.r y w.i.i.i.r.0.0.N.'.B B :.*.;.;.B < 1 z 1.^ T ( 1.J J J ",
";.z v , ) T ( ;.z Q T ( `.'.f X X X X b.'.`.'.'.r.X ; Y.^.F.s.j.T.^.H.s.j.Q./.^.^.E.4 . s '.'.P ,.*.;.1.K z M z *.Q R ( 1.N B B ",
">.< < , _ Q Q 1.z X.o.' `.`.g O $ 4 4 b.).(.(.(.y.; 0 L.Q.D.j.c.U.Q.F.j.c.T.~.Q.Q.T.w ; f (.(.B ;.1.1.%.B , z z *.) ( ) ,.K J B ",
"/ ,.;.,.~ } Q ;.] x > l `.`.g X 7 L.T.j ; ; ; ; 0.Y.P.c.j.M.D.S.c.j.M.D.H.K.K.K.K.K.I.Y.g.; 4 Y.'.Q Q ) C B L A ~ Q ~ Q ) N B K ",
"z 1.:.*.z z z ] / A P S `.`.g X 7 E.^.f X O + X 0.^.Q.j.s.M.J.D.j.s.m.G.J.K.K.G.G.K.Q./.l.O # T.'.'.^ { C C C B ^ x x x ~ C C N ",
"m *.;.;.z , z } ~ B C N `.`.g X 7 L.T.n.0.j y e h.T.I.j.s.M.J.D.j.s.m.J.A.f p u.J.J.I.T.A.0.0.u.i.A.`.Q B N B L ^ , c < ' B K L ",
"z *.;.;.z m z Q ' C C K `.`.g X 6 A.J.T.^.R.j.s.M.J.D.j.s.M.J.D.j.s.m.J.B.; X t J.G.G.G.Y.^.Q.9   s `.`.C J J C ' z v z / C C B ",
"J z D l Q +.~ C V ' / Q `.`.g X 4 B.D.Y.Q.T.c.f.m.D.C.j.j.M.D.C.j.s.m.J.C.9 = p J.J.G.G.I.Q.T.0 X d `.`.} J B J C N K J B A C K ",
"C ^ Q ` ) R ) ;./ B L B `.`.g X : s.j.C.K.K.D.D.v.f.j.Z.D.m.j.j.d.s.m.G.G.V.N.C.G.G.G.G.K.K.D.8 X d `.`.B J B J B J L B M B B J ",
"C } Q Q R ( ' ;.~ B A B `.`.g X : t.s.M.J.J.J.K.v.s.j.D.K.M.s.s.s.s.m.G.G.J.J.J.G.G.G.G.G.J.D.8 X d `.`.B J J B B B B P , B K B ",
"N ] / ^ ^ { } ;.] C B C `.`.g X 5 z.m.M.M.M.M.M.m.m.m.M.M.M.m.m.d.s.m.J.G.G.G.G.G.G.G.J.D.M.n.6 X d `.`.J N B A A C C C x C B L ",
"J C B B ~ ) C ) C ~ Q [ `.`.g X 6 A.K.m.s.d.d.s.m.K.D.j.s.M.K.D.j.s.m.J.G.G.G.G.G.G.J.J.V.s.t.: X d `.`.C B L A T _ Q ~ C 7.1.*.",
"J J K B C C C #.z C / ~ `.`.g X 4 C.D.z.t.t.t.t.c.D.D.j.s.M.J.D.j.s.m.G.G.G.G.G.G.G.D.D.M.t.e.7 & p `.`.K B B B C C ` Q 6.` Q ' ",
"B z , z Q ) ^ ,.B Q C B `.`.g X : s.j.y - - - - u c.c.j.s.M.J.D.j.s.m.J.J.G.G.G.J.D.z.j.h - 3 A.~.1.;.*.Q P J B S B S P z Q ) T ",
"A z z x ] ' ~ ;.J B A B `.`.g X : a.d.q X X X X y x.j.s.s.M.J.D.j.s.m.J.J.J.J.J.J.D.j.d.i X # Y.'.*.;.1./ B N J J K B C l Q ' { ",
"A z z z Q ) ~ ;.J B J C `.`.g X * y y d g g g 0.d y u a.d.c.M.m.d.s.z.M.M.M.M.M.M.n.a y p g f B ~ 1.;.#./ B A J B K J B b ^ Q T ",
"J >.1.$.B J C ~ C J K B `.`.g X @ @ X l.'.`.'.'.u.X = t.d.s.s.s.s.s.s.s.d.s.s.s.d.t.- X s `.'.B x Q ' Q C B C B C ^ T ' Z K J B ",
"<.` ) Q P J A x ' C J L `.'.f $ & & $ g.'.`.`.'.r.# 3 k t.a.s.s.s.s.a.t.t.p.p.p.p.t.6 $ s `.'.B A C C K B L J J 1.` ` ) C B J C ",
"*.T ' Q C J J , Q B J L z Q E.E.E.E.E.C J B B b Q.E.L.8 - i d.s.s.d.i ; : : : : : 6 S.W.Y.L A B P B B L J B B B 1.T ) } C N B B ",
"2.( ) Q N L J x ` C C N z Q '.'.'.`.'.C B C C l '.'.).; O y f.d.d.f.y X X X X X X $ W.'./ B B K K B J B A J J P 1.) ~ ^ C A J L ",
",.Q ) ) B B C ~ >.C V K C ~ ~ `.`.`.`.J / / _ 6.`.'.(.; @ 9 u u u u s g g g g g j f !.'.C C C B P K B C B 1.;.#.Q x z z C S B P ",
"{ l z z L L B z :.^ Q ] B z z z C C B J C B B ] `.'.(.; @ @ @ @ @ X w.'.`.`.`.`.'.'.M c N z z z ) 7.5.,.z *.;.2.) B J B *.K B B ",
"Q z M , B B K , #.^ ` } B < m c B K B J L C C ' `.'.(.6 & * * & & $ y.'.`.`.`.`.'.`.z z J z z z ( ;.*.;.z 2.#.*.Q A L J ;.V C J ",
"~ , , z J B K , ;.] ( ] J 2 v z J J B P N B C Q < M z E.E.E.E.E.E.E.Q.~ C C B L Q x z z J , z z ( #.;.;.z ,.;.1.) S N J *.C P B ",
"z B J K C C C J Q ` T { B P J C / ^ R Q B J B x K B J '.`.`.`.`.'.'.`.,.~ S N J B K B C B J A C J ,.:.,.z Q ~ / v A C C [ #.1.#.",
"C <.2.*.~ ` ' B x ) T ) C A B C *.( ( ) J J B Q *.5.=.`.`.`.`.`.`.`.z ) 2.B C B K n L P ,.Q ^ ) A B C C O.C C A B ^ ~ ^ B =.*.;.",
"C *.*.;.Q ( / C < } Q Q K J A C :.T R Q B B C } ;.1.*.B B B B A m m , _ ;.B A C J L J B ;.Q ( ( J J C B / V C C K Q ' ' C ,.1.;.",
"C #.2.2.Q Q ] C l ~ ' ~ C B N A ;.Q ' Q C J C C ;.1.*.K B J K B z z x ] ;.B P C J K C C 1.Q Q T N B B P Q K K B B ) Q T V ,.=.;.",
"5.) C ) C C N C C z , x Q 1.=.=.;.~ ^ Q C B C z ) ) ^ 5.z z z P A J C z *./ Q ~ , 1.,.#.Q C C B L z , z ~ N P A A Q ( ` +.z z c ",
"( Q +.Q B C C Q ,.B L P ~ ;.*.;.*.K C C C N A , ) T ' $.] ^ ' B P K B 1 / 1.#.1.F #.;.;.o., z z C Q ~ [ ;.C B J A 8.#.$.~ C B B ",
") Q E ) C J B ) ;.B B B ^ ;.:.=.1.B B B J B J v { T Q ;.{ ^ ~ B B N P z Q ;.;.*., ;.*.;.Q z M m B ' ) ' ;.C B B B ;.;.;./ B J B ",
"Q ` T ` B J B ^ *.K J C { #.1.;.=.B P J J L B z ] ) ` #.Q T ` S J A L z / ;.,.,.v =.*.;.` l z , C T ( ' ;.V L B K *.*.;.] A J J ",
"] C C V C C B v [ ;.*.*.C ;.;.1.z Q ( Q A A B ) z z 1 ~ C C C B L J B K B Q ' ( B 1.*.2.z 1.*.;.K A J A ) z z v ;.%.;.1.z L B J ",
"z Q / } 5.*.5.N z *.1.6.z ~ Q Q L C C C B B J ,.Q ) ^ C #.,.,.b C N J 5.l ) ' T C Q ~ Q c Q ~ ] >.P J B / l z z ;.^ ' ~ N K K n ",
"z ' ) T %.;.9.B z *.;.;.z Q ~ ) B N C J J J J ;.( ' ' Z :.*.=., B B P ,.z ~ ) { A ~ ^ Q c Q ( ` 2.C B B _ , z M #.Q ~ / B B C L ",
"z ] ~ _ 7.#.*.C z 1.:...z ] } Q K N L B C J K *.Q ' Q B *.1.;.z J B B *.z ) Q ^ C ' Q Q l ^ Q ( 1.C J L Q z z z ;.' Q / C S B C ",
"N C N C ~ ~ ) ~ S / ~ } B V V C @.K A C ~ [ ] 1.c c , S } Q ) { B B K Q / C C C B z z b C ~ ) ^ %.K B J C C C N T z < z C ~ / Q ",
"K P A C B C C ~ J C N B / ;.2.,.` B B B Q { T ` N J J C z l x T L N C o.V ^ ~ T 2.J B N L v z , ` C J J B ' ' ' b A A A C Q ) ` ",
"B B B B B C C ^ J J P C ) *.*.1.T C P A Q ( ) Q K A B B M z l ) J B C Q C ^ ) ' *.C B K N z z z Q C P J B Q Q Q , J K K B ^ T T ",
"J B J J J B K Q B A S B ~ 2.*.;.] C B J ) R ( ) C A P B 1 v , / B L B ~ S ^ Q Q ;.B A K C z z z { B J B C ) ( ) 1 J K n P Q ` { "
};
