/* XPM */
static char *_f4164d4bffb492dfa4f286c4bdedd49Om5soENUjobxkmYG[] = {
/* columns rows colors chars-per-pixel */
"64 64 155 2 ",
"   c #3F7D00",
".  c #467E01",
"X  c #4A7E02",
"o  c #4B7E0A",
"O  c #507F00",
"+  c #468201",
"@  c #4C8301",
"#  c #4D8900",
"$  c #4D830A",
"%  c #518402",
"&  c #528A01",
"*  c #598E03",
"=  c #52840B",
"-  c #52880A",
";  c #569401",
":  c #5C9501",
">  c #579900",
",  c #5D9A01",
"<  c #579508",
"1  c #5D950A",
"2  c #5D990B",
"3  c #4C8311",
"4  c #4F8910",
"5  c #558515",
"6  c #5C8F10",
"7  c #5E9311",
"8  c #619603",
"9  c #629A02",
"0  c #61960A",
"q  c #629B0A",
"w  c #639611",
"e  c #649914",
"r  c #689F10",
"t  c #5EA401",
"y  c #5FA901",
"u  c #5FA40B",
"i  c #63A601",
"p  c #62A700",
"a  c #61A400",
"s  c #64A500",
"d  c #65A500",
"f  c #65A400",
"g  c #65A600",
"h  c #67A502",
"j  c #64A702",
"k  c #63A004",
"l  c #63A304",
"z  c #64A604",
"x  c #65A506",
"c  c #64A606",
"v  c #63A502",
"b  c #68A603",
"n  c #69A704",
"m  c #68A603",
"M  c #60A800",
"N  c #61A800",
"B  c #62A800",
"V  c #61AA00",
"C  c #63AB01",
"Z  c #61A802",
"A  c #63AA02",
"S  c #64A800",
"D  c #65A900",
"F  c #66A900",
"G  c #67A900",
"H  c #66A902",
"J  c #65A803",
"K  c #65AC00",
"L  c #65A906",
"P  c #65A901",
"I  c #69A900",
"U  c #68AC00",
"Y  c #68AD00",
"T  c #6CAC00",
"R  c #6CAF00",
"E  c #68A905",
"W  c #68AB04",
"Q  c #6BA906",
"!  c #68AB06",
"~  c #6AAB02",
"^  c #61A208",
"/  c #65A10B",
"(  c #64A70A",
")  c #65A40F",
"_  c #64A40A",
"`  c #69A708",
"'  c #68A50A",
"]  c #69A50B",
"[  c #65A90A",
"{  c #68A809",
"}  c #6AAA0A",
"|  c #70AC0C",
" . c #6FB00C",
".. c #6AB109",
"X. c #70B100",
"o. c #7DBF06",
"O. c #7DBF0B",
"+. c #67A511",
"@. c #69A513",
"#. c #6AA912",
"$. c #6BA912",
"%. c #6BA51A",
"&. c #67A81A",
"*. c #7FBF11",
"=. c #7BC003",
"-. c #7AC103",
";. c #7EC000",
":. c #7EC500",
">. c #7DC700",
",. c #7EC402",
"<. c #7EC900",
"1. c #7DC408",
"2. c #7EC30A",
"3. c #7FC312",
"4. c #83BE0C",
"5. c #84C300",
"6. c #81C402",
"7. c #83C503",
"8. c #83C702",
"9. c #85C703",
"0. c #80C007",
"q. c #81C307",
"w. c #81C705",
"e. c #84C705",
"r. c #82C503",
"t. c #88C704",
"y. c #86C900",
"u. c #87C903",
"i. c #86CA03",
"p. c #82C806",
"a. c #85C904",
"s. c #86C806",
"d. c #84CA02",
"f. c #89CB04",
"g. c #80C209",
"h. c #81C10B",
"j. c #81C30A",
"k. c #82C40A",
"l. c #83C50C",
"z. c #83C40B",
"x. c #88C30F",
"c. c #87CF09",
"v. c #81C80C",
"b. c #85CC0C",
"n. c #85CA0B",
"m. c #8BCF0A",
"M. c #89CB0B",
"N. c #86D001",
"B. c #89D102",
"V. c #83C413",
"C. c #88C510",
"Z. c #86CA12",
"A. c #8BCC11",
"S. c #85C71D",
"D. c #8ED110",
/* pixels */
": , 8 , j p U j , p E 9 9 8.s.l.b 8 e : : : : @ 8 : , 9 1 9 1 D 8 : : , 8.) #.a 1 : 8 , b j D p , 1 8 8 l B B u : , 1 1 U 1.w.e.",
"8 8 : : , , , : ^ , : q 2 # . @ , ; : , $ @ & g.8 1 , 9 @ % @ p 8 9 8 q.R @ + # 0 8 : ; @ g.v.b.D 0 8 8 , D B B 9 : , : D E E p ",
": 8 8 8 : ; 0 0 n , : , 8 . . % 8 q 9 9 @ @ @ y.: 1 , E . @ @ D ; ; : y./ . @ @ : , q 9 . m.,.,.a 1 : 8 1 z p B : ; 8 , p t L D ",
": 8 : 8 , , 8 8 l 8 0 ; 1 - = . w 1 ; : 5 . @ y.0 8 : Q @ @ & l q 9 , q.' @ & . q ; 0 : @ l.p.n.R 1 : 0 0 z p D 0 8 8 0 U B B p ",
", : ; , j D j : 8 @ @ @ l ;.y.9.: 8 9 8 9.s.8.' : : 9 g.{ z , , : , ;  .p : 0 1 8 ; 0 8 , b p y -.& @ % 1 : , , : 8 : 0 -.K p ( ",
", , 1 : z p ( 1 9 @ @ @ z f.f.w.8 : 8 1 s.6.d.z , 8 8 ;.D B D 9 0 , : ) D : 9 0 : q : : 9 ( ( z s.% . . 0 , , 8 9 : 8 , M.B p z ",
", : q : D B D > 1 @ @ + U ,.p.l.8 : 8 : y.B.d.^ 1 0 : s.D B p : : : 9 ( L , 9 : ; 9 : , : j z L 8.@ @ % 8 , 1 : < : : , l.L { l ",
"8 : 8 8 2.p.v.D , x z B v.K a D : @ @ @ / D p A @ @ @ y.p ( p , 8 9 , j + 2 , 8 0 j ' x 2 B B B s.1 8 : : , 1 8 j l.f.h.p @ @ @ ",
"p @ % @ p y U h.@ a } t l @ % @ , L ( y z j x @ , 8 : $ j D p , c p { 2 , : 8 : / j D D < j D l / @ . @ Q $ @ @ n y.v.2.j , , 0 ",
"s.8 8 : 9 < , y.$ D p ! # 1 1 1 , p y D , , 0 1 c ! j 1 : , ; 8 K D p , j q.f.f.% : : , @ , , , K z D E y.0 : ; @ 8.y.s.Q , 9 1 ",
"6.: 8 : , , : t.3 D a p @ 1 q : : D K Q < 1 : 8 y p D : 9 : 8 8 L D z , n Z.8.;.. 1 2 8 = 8 : : y B D p 8., 9 9 . n.d.8.j * 9 : ",
"M.q 1 e 0 q : k.@ j ( L # : , , : j D p , 9 : , L Q j , > , q : a a { , ( w.N.d.& ; < : X 9 : 8 L ) z ( z.: : : @ V.y.8.Q 1 9 : ",
"p =.B.=.: 8 1 Q : > , , g.] | a 7 # @ @ ; : 8 q @ . = 9 1.8.,., f.w.2.Q , D p z h.} ( j @ 8 , , : : : a l.D { z @ j j j 8 : : : ",
"z K y { @ @ @ , D } c { 8.8 : , 8 : , q A.y.;.U 8 8 : g.B ..p , @ @ @ 9 $ j p A 8.p p D ; j z p 8 9 : ; D p p y a , , : : 0 : 9 ",
"+.c p z @ % @ , D p t p t.8 : , : 8 : ; 5.t.8.B , : 8 s.D B a 2 @ @ . n $ D D B 8.p ( D , E p B : 8 0 1 p K ( C Q , , , 8 8 ; ; ",
"j p K p o = o , ( B B D l.8 : 1 : 0 : 0 M.9.,.( , , 1 8.p D j 8 @ @ @ Q $ t U t y.D [ t , j p K 8 : , 2 a D t B E : , , : , 8 8 ",
", j Q j @ @ @ x , L j j @ 1 : , , 8 : 9 1.<.<.n 9 ; 9 l.b Q / , , 2 , y.6 % . @ D $ o @ Q 8.h.y.D , 8 : r , , , b , : : 1 8 8 1 ",
", 1 1 q , 8 : 8 , : 1 q < & @ @ p q 8 ; D C p @ 8.M.n.a @ @ $ b j l D ,.q : q : j $ @ @ O.{ ^ U z , : 8 9 8.h.z.@ ; 8 8 1 @ @ @ ",
"8 : : : 8 : : : 9 : : 8 : . @ = j , 8 1 z B p $ 8.y.s.j + @ . Q D B B d.8 8 : 9 p @ @ @ i.p p D ( 9 8 ; : f.s.y.. 9 8 8 : @ $ @ ",
", 9 9 , , ; 1 : : 9 : 9 * & @ . K : 8 , p B D # y.,.q.Q @ @ @ a p B B n.: : ; , / $ @ @ ,.D ! , j : 8 : : 8.w.8.# ; 8 0 : @ @ @ ",
", l a z D Q z , ; l.e.z.9 p j U 2.0 : 1 D B U < c z z @ / j ! d.A y B U < 8 9 : @ : 8 8 j . @ & 9 ; 8 0 , s.l.s.g., 8 ; 9 * 8 0 ",
", E D D p p a , , y.y.,.2 z z p d., : , D p j 1 D D j . +.( t 8.p B B a : : 8 : @ 8 : : Q @ . X , : 1 0 ; y.6.8.f., 8 8 8 e , : ",
", b j p B p { , , 8.f.w.: U D D 8.8 8 8 D p l : y p j $ a Q K d.D D D ^ 8 : : 8 @ 9 1 , x @ @ = : 0 : : , d.s.y.6., : : , : 8 9 ",
": 1 < , ,.8.n.l $ b x Q # ,.w.p.D o o @ : , 9 8 B U p @ y.d.3.p ( p p @ 0 : 8 : z 8.z.y.j : 1 8 , 8 : , z 8.z.e.f.@ @ = t.: q 1 ",
"l.@ @ @ L t D 8.+ D j K ) 8.w.s.j 9 8 : : , 1 s., 0 0 , p B { , @ @ @ j 8.0 : 0 B d.8.s.. 9 : : f.8.y.9.: X o @ s.z y B n.8 8 8 ",
"y.@ % . D t B p.@ p t B z d.8.8.p : 8 0 8 , : y., ; 8 9 D p z , @ @ . +.8.q : 8 ( ,.8.M.$ 8 : q e.w.p.z.9 @ = @ 8.p y B n.; : : ",
"h.X . . R p p n.@ / #.L D ,.p.s.Q , : : : , , n., , 8 : z D j : = . # x y., 1 : D d.f.6.. : ; : y.s.n.2.: . @ @ 8.D B D l.9 8 : ",
"Q l.y.e.j } a y.x #   + p j j n : , , , : : : l e.9.q., , , : @ : 8 : 9 j 8.Z.8.2 } a j ; w.d.8.p p p D , : 0 1 j l j a D ; : 9 ",
"@ s.f.8.@ @ @ ( Q 1 q 2 Q @ + @ @ z p / , : , @ 8.y.s.j , : 9 / 8 , : , X y.e.8., p z { < p p p , z z { , , , : z # # # j , , ; ",
"= w.p.8.@ . @ } j : , ; x $ $ $ . j B L : : 9 o z.n.v.j : : , j 2 ; 0 , 3 y.s.l.t p p p , ) D B : D D p : ; : 0 z . $ X Q : 9 0 ",
"@ q.8.i.@ = @ p E , , 9 ' @ . % * t y K , : : @ 8.d.>.D 8 e < j ; q , : @ e.y.y.> ( Q b , x D j 1 Q B p , 8 8 , L @ % @ n , , : ",
"8 @ 3 + l %.j , > L b a , q : : 4.U t C , w 8 : j p B D : : , 8.U l l 9 l @ . $ b q : : , 8 , 1 8 =.N.1.{ 8 : 8 , ; 9 8 : 1 , 9 ",
", z p K C y j 8.Q : q : : 8 : : , D D { , 0 : z.: , , 1 : : , D y.M.9.: : : : , : 0 : : 8 @ X o z , : 0 : 8 : 9 : 8 8 : - : : 8 ",
", { p p y B L p.j : 1 : 8 8 ; : 2 p p a , 8 8 y.8 : : 0 0 : , z ;.l.9., 9 : 8 8 , 8 1 8 8 @ @ % p , : : : 8 8 : : : : q . : 9 : ",
"; ( Q z z { } 8.( , : , : ; 8 q : j z D ; , , n.9 , : , : : , z d.p.s.1 2 ; : ; 8 : : 8 : @ @ @ D , , 9 8 ; : 1 1 , , , # , : 0 ",
"8 , : : j D , D , j a ] + 0 q * , w.p.s.@ @ @ O.: 1 8 b 0 8 , , U t p , 1 # @ = q.l ; : x x { j 3.U a l , : 0 1 , R l j , Z.n.w.",
"8 8 9 : , , , ,.@ , Q j Z.9 ; q j 8.8.8.$ - . l 0 1 ; Q ; : 9 L p } b : , e.f.8.] 1 0 q ; @ @ @ j 2.m.l.9 : : : , , U B S.K p L ",
": @ . @ a D z v.: l , : { g.y.9.p U p j 1 8 ; ; % @ & q.q : : z $ @ @ : , 9.q.s.U : : : : : , , Q n.d.8.a q 8 : 2 : 2 q @ p D y ",
"0 @ @ # / L j 8.8 : 1 < b e.d.y.p z D j , : 9 9 @ . @ e.0 , : L @ @ @ 1 1 e.z.8.p : 9 8 8 8 8 , j w.8.s.Q : ; 8 8 9 : , + p L [ ",
"1 @ @ @ a D j 8.8 : 8 , j 8.y.V.D z y D , : 8 : @ $ @ 9.: 9 , p o . % : 8 y.s.8.L , , : 8 0 8 : j n.y.;.Q : 1 8 : 9 8 : & z p y ",
"8 g.v.<.: 8 , j , 8 9 : @ p.n.8.9 & . @ 8 8 8 8 8.s.8.n , 8 8 : 0 8 0 h.> U p B @ : 9 , @ ; q : # l ! p , : , : , ( z L < 9 8 < ",
"x.U B p q 8 1 # L , 8 8 @ D p j R , : 1 0 1 1 @ Z.w.b.x 1 ; w 9 : : : X.# p p p 8 z.9.8.l 9 8 : 1 , , 9 : 0 8 8 z.U K D , : 8 , ",
"8.t L p , 8 8 . p : 8 0 @ p z { , , 0 , 8 : : & p.8.,.l , 9 : 8 : : : a @ p L p : M.,.y.x 0 1 : q : : 0 8 : : : z.t D { , ; : < ",
"b.B W p ; 0 8 # U , , ; @ p D p { : : , : , , + 8.y.d.#., 0 1 ; : 8 , a # l L a , l.s.M.b : : 9 9 : 8 : 1 8 8 q n.D j z , : 8 0 ",
"l.p D D : : , b g., > 9 , j j j @ 1 2 8 b b R V.] x t + d.h.y.f.: : , a < , 9 , l.R l 9 , , , : q 9 : , : n.y.-.p # @ @ , 1 : q ",
"{ + @ @ 0 0 : @ f.z p ( : @ @ @ , , : 8 , : : ^ @ @ # S.p } p p : : , a < , : : j + - $ ; @ @ @ D Z.V.l.@ w.8.M.D : 8 : w.9 : : ",
"p @ - . : : 9 . ;.z U } : X = $ : 9 : 8 0 , , E = . $ s.l y K p 8 , , j , , : 8 D @ @ @ 8 @ @ @ B p.8.y.@ M.,.w.p 1 0 8 y.> , 8 ",
"j . . @ 8 : 9 . y.( B ( 8 O % @ 8 8 : q ; : , l X - @ 8.D D C c : , , j , , : 0 a # @ @ 9 . @ @ B ,.y.9.@ k.9.n.D 2 ; 8 8., q : ",
"@ : 8 9 , , , 8 l K t { : q 8 , Q z y p : 8 : # 9 : 8 0 @ @ . n : 0 1 l.j 2 ; 8 : 9 : , : 8 1 , 8 l.f.l.@ l j Q % 1 , , ' ;.n.,.",
", C.M.q.j U E : # D t D , 1 : , q.B A D 8 8 : l w.V.f.; 9 8 8 , @ @ @ D f.: , : 9 * 0 q l.a z D 1 : , , @., , 1 : z j z : t.w.8.",
", 8.8.y.p B n , X } p p 9 8 1 , f.t y p : : , } y.n.8.: : : : 1 = = . R 8.< 1 , 8 0 8 : 8.p B C 8 8 , : n > : , 9 a ! L , e.n.y.",
", ,.M.M.l p ( , + j E j , : ; 1 8.p L p , 8 , , 8.n.8.9 : 8 9 : X @ # / 8.: q , 8 9 , , n.p B y ; : : q l 9 9 : < D p y > e.f.y.",
"V.D , D , , ; , , @ . # a s.f.f.8.j z a , : , @ D D z V.@ @ @ q 1 8 , $ w.Q l j . z.l.,.p , , : 0 @ . @ j ; q 1 1 p B U &.@ @ $ ",
"B p &.p : , , p e.: 0 q j 8.8.5.q.9 , , , ; 1 . D t L <.( z Q : q 0 ; o Q n.,.n.4 ,.p.y.$.. @ @ , l j ) i., : 8 1 A.-.<.j , : : ",
"D p u D , 8 : D y.: : : z p.f.s.n.: : : 8 : 8 % { t p d.{ z j : : ; q @ a 8.y.8.. y.w.8.a @ = = : E D L 8., : : : y.d.8.Q : 8 : ",
"a U y U : 8 : z w.9 8 , { ,.s.9.f.: q 8 8 0 : @ ^ D K >.p t K 2 8 1 0 @ n 8.l.v.% f.q.y.U + @ . , t B L d.> 0 : 9 6.8.8.x 1 8 8 ",
"/ , , > , , : % ' d.8.8., d.d.v.@ p B l 1 0 : D @ @ o j , , , : 8 8 : 9 : p L B : s.w.M.@ s.8.y.9 1 8 1 D @ @ % 8.1.d.s.@ 0 : 8 ",
"@ a Q { V.w.V.; @ 6.n.C.@ j p p 0 , , , : : 8 l.p D z , ;.l.l.& , ; 0 x.+ D L y , p j p $ p j ) g.q 8 : Q + @ @ i.z L j ; 9 9 * ",
"@ E D t 2.d.D.: @ 8.y.y.@ p j D : ; , 8 8 8 8 9.B L ! < f.6.t.. : : q e.@ j D { 1 j z p $ j D K M., : : Q . @ = ,.p j Q : < , 0 ",
"@ x j R Z.,.q., @ n.f.o.@ ( } a 9 ; 0 : , 8 9 8.p L p < 8.s.9.@ 0 : : q.@ D p z , Q j p + z p B s., 8 0 l @ @ @ d.E a Q , 2 : , ",
"; , ; , j j D j 1 b j } < > > , *.9 1 , j ) ( v.$ $ . 2 Q p D { : : 9 l b , , , : @ @ & , j D z 2.9 : 8 , , , ; t @ X @ , j Q p ",
"9 q 1 , : , , j 8 , ; : Q p.m.l.U : : : p ( t K ; 8 8 , @ + # y 0 ; , } > z j t M.8 : ; 0 % @ . U , 8 8 : L E L & 1 1 1 , p D K ",
": : : : : , , z 8 8 q , D 8.8.s.y , q 1 p B A p 9 1 : : - @ + D 8 : , a , z D ! 6., : 9 ; @ @ @ p , q 8 : p p p . 8 9 9 : z t y ",
"8 : 8 8 8 : 9 l : 1 2 < j M.8.y.( , : 8 D y B D , 1 q : o % . Q : 0 : j 2 z p p d.: 1 9 , @ @ @ { : 8 : , D B A o 8 9 * q p K ( "
};
