/* XPM */
static char *result[] = {
/* columns rows colors chars-per-pixel */
"64 64 191 2 ",
"   c #020202",
".  c #060508",
"X  c #09070A",
"o  c #0B0A0B",
"O  c #140F16",
"+  c #150F18",
"@  c #141214",
"#  c #1B1717",
"$  c #171018",
"%  c #1A131E",
"&  c #1F191C",
"*  c #20181F",
"=  c #1E1722",
"-  c #211920",
";  c #231829",
":  c #2C1F32",
">  c #272323",
",  c #292326",
"<  c #2B212C",
"1  c #2E2B29",
"2  c #312A2B",
"3  c #2D2033",
"4  c #36293A",
"5  c #373330",
"6  c #383533",
"7  c #3D3936",
"8  c #47230C",
"9  c #573A25",
"0  c #413C3A",
"q  c #3F7D00",
"w  c #467E01",
"e  c #4A7E01",
"r  c #4C7E0A",
"t  c #507F00",
"y  c #47423F",
"u  c #48423F",
"i  c #644B39",
"p  c #423343",
"a  c #4A4340",
"s  c #524749",
"d  c #5A524F",
"f  c #5E4E55",
"g  c #5E5752",
"h  c #6D5443",
"j  c #765E4F",
"k  c #645659",
"l  c #685F5A",
"z  c #6D625D",
"x  c #776456",
"c  c #7E6A5A",
"v  c #6E6560",
"b  c #786B68",
"n  c #7E716D",
"m  c #806B5C",
"M  c #88725F",
"N  c #897367",
"B  c #81746E",
"V  c #8D766C",
"C  c #907A6C",
"Z  c #867573",
"A  c #877973",
"S  c #8C7D76",
"D  c #8C7F78",
"F  c #927C73",
"G  c #468201",
"H  c #4C8301",
"J  c #4D8901",
"K  c #4C8309",
"L  c #518502",
"P  c #528A01",
"I  c #598E03",
"U  c #52840B",
"Y  c #52880A",
"T  c #569401",
"R  c #5C9501",
"E  c #579800",
"W  c #5D9A01",
"Q  c #579508",
"!  c #5C940A",
"~  c #5D990A",
"^  c #4D8511",
"/  c #598A13",
"(  c #619603",
")  c #629A02",
"_  c #61960A",
"`  c #629A0A",
"'  c #649A11",
"]  c #649914",
"[  c #5EA401",
"{  c #5FA901",
"}  c #5FA40B",
"|  c #63A502",
" . c #68A604",
".. c #65A901",
"X. c #69AB02",
"o. c #64A40A",
"O. c #69A50A",
"+. c #65A90A",
"@. c #6AAA0B",
"#. c #70AC0C",
"$. c #6DB10B",
"%. c #7CBF09",
"&. c #69A516",
"*. c #6BAA12",
"=. c #7DC401",
"-. c #7EC900",
";. c #7EC40A",
":. c #7EC310",
">. c #82C503",
",. c #89C702",
"<. c #84CA02",
"1. c #89CB04",
"2. c #82C40B",
"3. c #88C30F",
"4. c #85CA0B",
"5. c #89CB0B",
"6. c #88D101",
"7. c #83C412",
"8. c #86CA12",
"9. c #88C815",
"0. c #8ED110",
"q. c #8F806F",
"w. c #8E817B",
"e. c #958276",
"r. c #94827A",
"t. c #998379",
"y. c #9B8A7C",
"u. c #8C8683",
"i. c #9D8C82",
"p. c #998C86",
"a. c #918D89",
"s. c #9F9188",
"d. c #9A9897",
"f. c #9D9D9D",
"g. c #A28E85",
"h. c #A29186",
"j. c #A2928A",
"k. c #AA998E",
"l. c #A89792",
"z. c #AD9C94",
"x. c #B19E93",
"c. c #B1A096",
"v. c #B5A49C",
"b. c #B9A79E",
"n. c #B7A9A1",
"m. c #BCACA3",
"M. c #BDB1A7",
"N. c #BDB2AA",
"B. c #C0AEA5",
"V. c #C1B1A7",
"C. c #C3B4AB",
"Z. c #C8B6AE",
"A. c #C7B8AF",
"S. c #C5BBB4",
"D. c #CABAB2",
"F. c #C7BFB9",
"G. c #CEC1B7",
"H. c #C7C1BA",
"J. c #CDC2BA",
"K. c #D3C5BC",
"L. c #D4C8BF",
"P. c #CEC6C2",
"I. c #D3C7C0",
"U. c #D4CAC2",
"Y. c #DACEC5",
"T. c #D6CFC9",
"R. c #DBCFC8",
"E. c #DBD0C7",
"W. c #D7D0CA",
"Q. c #DDD3CB",
"!. c #DCD7D3",
"~. c #E1D5CC",
"^. c #E4D8CE",
"/. c #E5DCD4",
"(. c #E9DFD7",
"). c #E5DFDB",
"_. c #E9E1D7",
"`. c #E6E1DC",
"'. c #EAE2DB",
"]. c #EAE6E2",
"[. c #EDEAE5",
"{. c #EEECEA",
"}. c #F1E7E2",
"|. c #F2EBE5",
" X c #F2EDE9",
".X c #F4F2EE",
"XX c #F8F4EF",
"oX c #F6F5F3",
"OX c #F9F7F4",
"+X c #FAF9F7",
"@X c #FEFEFE",
/* pixels */
"R R ) W ..| X.| [ |  .W | >.,.2. .) ' R R ) R H ) R W ) _ ) ! | ) R R W <.o.&.| ( R ) (  .| ....E ! W ) | | ..} Q W _ R X.;.<.2.",
") ) R R E E W R } R R ` ~ J w H R T R R U e P 2.) R W ) G L H | ( ) ) %.X.J w J ( ) R T J 2.;.5...` ) R W ....{ ) R R R ..X...| ",
"( ( ( ( R R ( _  .W R ) ) e e J ( ( ) ) H e e ,.! W W X.G G H  .R R R 1.o.w e J ( W ` ` w 5.=.=.| R R ( R | ..| W R ) R | [  ...",
"R ( ( ) ) W ) ( | ) ) T _ Y U e ] R R T / e J ,._ R R X.H H J | ) ) W >.O.J L e ` R ( R H 2.<.5.X.Q R ) ~  .| .._ ( ( _ ..{ { ..",
") R T W | ..| R ( H H J ) =.,.<.( ) ) ) >.4.=.O.R ( ) 2.X.+.[ W T W T $.| E R _ ) T ) ( R | [ [ =.L L L I R W W R ) ( ) =.....+.",
"W R R R | | +.Q ) J G H  .1.1.>.W R ) ( ,.=.6.| W ( ) %.| | ..) ) W R &.| R ) _ R ` ( R ) o.@. .1.L e H ) E W ( ) R ( W 5.{ ..| ",
") ( ) R X.....E Q L J G X.=.>.4.) R R ! ,.6.<.} R _ R ,...[ ..R ( T ) +. .W ) R T ) R E E | | +.>.J e L ( W ( ( R R E ) ;. .@.| ",
") I ( ) 2.<.4...W o. ...;...[ ..R U G H | ..|  .H L H <...+.| E ( ) E ..G ~ R ) )  .O. .~ ....[ ,.R ( ( R ) ! ( ..2.1.;.| H G e ",
"| e L H | { X.2.J ) @.[ | H L H E X.o.[ | | o.H W ) R r | ..| W +.| +.` W R ( R O.| ....Q  . .| +.K G H X.K e J o.,.4.:...W W ~ ",
"1.) ) I W Q W ,.H X.| X.J ~ ! ( W | [ ..W W W R o.X.| ~ E R Q ) X.| | W | 2.,.1.L R W E H ) W W ..[ .. .<.) R T J =.<.1. .E ) ~ ",
">.R ) ( E W R ,.^ | | | G R ` T R X.X.X.Q ( R ) [ [ | R ) W ) (  .| | E  .8.>.=.e ( _ ) L ( R W { ....| >.R ) ) e 4.<.>.| T ) ( ",
"4.) ! ] ` ` R 2.G | +. .J R R ) R | ..| W ) R W .. .| W E W ` R [ | @.E o.-.6.<.P T Q R e ) R ) ..o.|  .2.R R R H 7.,.-.X.R ) ( ",
"| ;.6.=.R ) R X.E E W E 2.O.#.| ! L G G T ( W o.H w ^ ) =.-.=.W 5.<.2.X.Q ..{ | 7.@.+.| H W E W R W R | 2... . .J |  . .) R R R ",
"| ....+.L e H W ..*.+.@.>.) T W ) T ) ` 3.,.=...` W R 2...$.| W G H L ) H ..{ ..,...{ ..E |  .{ R ) R I ..| { { | ) W Q R ) ) ` ",
"+.} [  .L L H W ..| [ | ,.) R W ( ( R R ,.,.<...R R ( ,...| | ~ H K e  .H ....{ >...+...W  .....R ( _ ~ | ..@... .R ) R ) ) R R ",
"..{ ..| r U r E +.{ ....2.( R ~ R ( ( _ ,.<.=.+.W W W >.| | | ( H L G X.K [ X.} >...+.[ W | [ ..) R W ~ [ ..[ | X.E R W R R ( ( ",
"E | X. .G G J o.W  ...| H ~ R W ) ( R ) 2.<.-.X.) T ) 2. .X.o.W R ~ E ,./ L G H | K H L X.>.2.<.X.R R R ' ) E W X.W R ( R ) ) ! ",
"W W Q ` ) ) ( ) R R R ` ! P J e | ` ( R ......H <.5.4.| J H G  .| | X.>.` ( ) R | e J G ;.+.| ..| W ( ( | >.2.3.G T ) ) ( e H H ",
") R R W ( ( ( R ) ) R ) R e H U | W ) R | [ | G >.<.1.| e H w X.......<.) ) W ) | G H G 1.{ | ..o.) ( T R <.1.,.e ) ) ( R L U e ",
"R ) ) W W T R ( I | R ) I P H w ..R ( R 5 u.a.a.a.d.f.f.f.f.f.f.f.d.a.a.a.a.a.a.a.b z > =...@.W | R ) R E >.<.>.J T ( _ R L H H ",
"R o.[  ..... .W R 3.>.4.W | ..X.;.1 7 5 g /.{. X X+X@X@X@X@X@X@X@X+X X X X[.|. X].K.m.s 6 7 1 J ) R ) ` ) 4.2.1.2.R ( I ) I ( ( ",
"W +.....| | | E W 1.,.=.~ ..# s g s.H.H.W.oX+X+X@X+X@X@X@X@X@X@X@X.X[.+X@X+X+X+X+XoX_.L.S.C.s.d > R R ( T ,.=.,.1.W ) ( ) ] W R ",
"W  .| | ..| +.W E >.1.<.Q X.d b.U.{.!.P.oX@X@X@X@X@X@X@X@X@X+X+X+X'.Y..X@X@X@X@X@X@X@X@X+X.X].L.p.g @ W E <.1.<.>.R R ! W R ( ) ",
"( R Q [ =.<.3.| K  .| ..J > w.I.oX@XU.x z.OX@X@X+XOX+XOX+XOX|.|. XD.m L.+X@X@X@X@X@X@X@X@X@X@X+X'.M.l 5  .-.2.>.5.G e L 1.R ` R ",
"2.H H H  .} ..<.G ..| ..o.s D. X@X@X Xq.m [..X.X X}.|.|.|.|.|.|.}.c.e./.|..X.X.X.XOX+X@X@X.XJ.!.+X'.v.S 0 r r e ,. .[ ..4.( ( ( ",
"<.L L e ..[ ..-.H | [ ..> B J.@X@X@X+Xy.m '.|.|.|.}.|.}.Q.R.R.Q.R.i.k.}.|.|.|.|.}.}.|. X'.b.i.P.@X+Xv.c l L L J >.| { ..<.T R R ",
"2.w e e X.| ..4.H &.*...a r.W.@X@X+X.Xy.c _.}.}.}.(.D.E.m.b.b.k.C x y.Z.A.A.A.E.}.}.}.|.D.F Q..X@X+XT.g.l e e H >.......2.) ) ( ",
"X.2.,.,.| O.[ <.| J q , A v. X@X+XXX'.M i c.b.b.m.Y.D.E././.Y.K.C.v.x.t.C F m.V.M./.'.}.V.m.'. X+X@X.XD.z O ` R ..| | [ X.T ( ) ",
"G 4.1.-.G J H O. .Q 0 p.i.F.+X@X'.U.x.9 c D.Y.E.R.Q.~.L.D.D.D.L.G.D.D.V.m.V.W.~.Q.U.U.~.e.J.|.|..X+X+XC.h.7 R R  .J J H | W W T ",
"U >.<.>.H w H O.| R 0 v.g.J.@X@X!.y.h 8 C m.U.Y.Y.D.D.D.D.D.D.D.D.D.A.A.D.A.D.K.E././.~.m.C._.I.D.oX+XD.h.y ) ` +.w K e X.R ) _ ",
"H >.,.<.H U H | X.E a v.b.I.+X@X+XE.j 9 N g.m.M.V.V.V.m.m.m.m.m.C.D.A.D.D.D.D.Z.D.I.L.~._.D.z.F.`.+X@X!.h.a ) )  .G L t  .W ) I ",
") e ^ G  .]  .[ E X.a n.L.D.|.@X@X[.N i c h c N N N N x m V V V g.x.z.x.x.z.v.A.D./.I.Y.^.z.N.OX@X@X@XQ.j.a T ( W T ) ( R R ) ) ",
"R | { ....{ ..-.X.R u b.A.B.J..X@XoXP.S.W.S.M.r.b C m.M.S.P.U.P.I.D.J.U.m.S F i.h.D.Z.x.k.S.OX@X@X@XoXC.h.a T ) ( ) ( R Y ( R ( ",
"W @...| { [ @.<.| R u b.C.U.m.J.].+X@X@X@X@X@X{.'.{.+X@X@X@X@X@X@X+X@X@XoX].!.c.j.z.z.z.n./.[.].].`.J.V.v.y ) R R R W ` w R ) ( ",
"E o.X.| ..+.@.>. .E > d S D.A.m.m.`.@X@X@X@X@X@X@X@X@X@X@X@X@X@X@X@X@X@X@X@X@X+XOXoXOX+X].I.V.m.V.L.U.Y.b.a R ~ ~ ) E W J W R ` ",
") ) Q R | ..E ..W ..    s r.V.Q.v.i.'.+X+X+X+X+X+X+X@X@X@X@X@X@X@X@X@X@X@X@X@X@X@X@X@X@X!.V.Y.Q.Q._.'.Y.b.a ) ( W X.| | W 8.3.>.",
"R ( ) R W W [ =.J E     # z z.R.Y.J./.'.'.'.'.'.'.'.oXoX.X+X+XOXoXoX.X.X.X+X@X+XoXoX XoX/.Q.'.'.'./.U.v.D 2 R R W [ X...9...| ..",
"R H G H | |  .4.R o.    X 2 z y.V.J././.'.'.'.'.'.'.'.`.`.].[.'.'.'.`.`.'.]. X'./.'.'.'.)././.R.D.n.t.z &   ( ( ~ R ~ _ J [ ..{ ",
"_ L J J |  ...<.( R X .     @ 2 z S b.V.R.~./.'.'.'.'.'.'.'.'.'.'.'.'.'.'.'.'.Z.i.U.~.~.I.A.m.x.Z v p ,     I ) ( ) R R G | @.+.",
"R e H G | ....>.( R ) W     o o + 5 u n h.h.n.K.L.K.K.L.L.L.U.U.I.L.L.L.L.I.I.m.i.n.z.j.h.Z k f p 4 4 o     ( ( ( ) ! R J ....[ ",
") %.;.-.W ( ) | E W ) I o     . X + O & 2 2 k A Z n Z n B B A j.l.l.l.w.B B B B n k p p 2 * ; 3 : - O     . R W W  .[  .Q ` ) R ",
"3.X.{ .._ ) R H  .W ) _ L o       . . + % % 4 4 < = = = * * = > 4 p p < & * * & $ = ; ; % % o . . .     . ) ) ) 4...{ ..E R ) ) ",
"<.[  .[ W ) ) w | R ( W H |  ..             O @ $ $ $ $ @ $ $ $ + + $ @ + + + + .   . .       .     . ( ( R R ( 2.| ..@.) T R R ",
"5.| ....T ` ) H X.W R T J | ..| @.R .                                                         ` ) R ( R ! ( ) ~ 4...|  .R R ( ) ",
"2.| |  .R R ) | ;.W E W W | |  .G ! R )  . .X 7.O. .) G ,.;.>.6.R W W ) Q ) ) W 2.X.| W W W ( R ` W E ) Q 5.,.=.| J G e ) ~ ! _ ",
" .G G H ' _ R L 4. .| @.R L H G ) ) R ( R R R o.H G J 9.| $.| | ) Q R | Q W R ( ..G U U R J H H ..8.7.4.H >.-.5...R ) ( >.) W R ",
"..H Y e ) R ) e =.| X.@.R t L K R ) ( ( ) W E X.Y e H 1.[ [ ....( R W  .) R R ( ..e G H ( L H e ..<.>.<.H 5.-.=...! ( ( <.E R ) ",
" .G e H ) R ) e ,.+.{ +.( t L G ( ( ) _ T R ) | G Y G >.......o.R W W | W W R _ | J H e ) e t t ..-.<.,.L 2.>.1...~ R ( >.W ` R ",
"H R ( ) Q W W ( | ..} o.E _ ( W  .| { ..Q ( R J W R ) _ H H e O.( ) ` 2.| ~ R ) Q ) W ~ T ) W E W 3.1.3.H | | X.L Q W E @.=.8.=.",
"Q 5.3.>.| X.+.( J X.| ..W ( ( W =...{ ..) ( R | >.7.,.R ) ( ) W H e J | 5.R ( R ) I ) W 3.| o...R E W E &.) W ! R  ... .E 1.1.>.",
"W ,.>.<.| | X.W G @.| | ) ( R ) 6.[ { | R R R $.<.4.<.R R R R ( L U w X.>.R ~ W ( _ W R >...{ ..) ) ) E +.T R ) ) |  . .W 2.2.>.",
"W =.5.5.o.| o.E G  .X.| W R T R <.|  .| W _ W ) ,.4.>.) ( ) ` R e e J o.>.E ` ) ) ) W W 4...| ..R E W `  .) ) R R ..[ [ E <.1.,.",
":.X.[ ..W E Q W ) G w J | 1.1.1.>...@.| ) ( W L ..| ..:.G G H _ ( ) ) H <...| | e 4.;.=.| E W R ) J G G | T ) _ Q [ ....&.G e K ",
"..{ &.{ E W W | 2.( _ _ | >.>.>.>.) E W R T ( e ..[ +.-.+. .X.E _ ) T r ..1.=.4.Y >.4.,.*.e L e R o.o.o.1.E R ) W 0.=.-...W ( R ",
"....} X.W ( W ..,.R R R | 4.1.,.3.E R ( ( R ( L @.[ [ <.+. .| R R T _ H | <.>.-.w ,.-.<.| G Y L T  .....>.W Q R R 1.>.<.X.R ) R ",
"[ X.[ ..R ) R  .<.) W W o.=.1.<.1.R ) R ) ) R H o.....-.| | ..~ ) ~ ` H  .>.4.4.L 5.>.>.X.e H G ) [ .. .<.E ` ) ) =.>.<.o.R ( ( ",
" .W R E W W R L O.,.>.>.W <.<.4.G | ..| W _ R ..J H r ..) ) W R ) ( R ) R | ....W 1.>.5.G 1.>.<.) ! ) R  .H G L <.2.<.1.G _ R ) ",
"H ) X.O.7.,.2.Q G >.5.7.J | [ | _ ) E E R R ) 2.| .. .) =.2.2.P R R ( 7.G X...[ W | | | K | ..} %.` ( R ..H H t 1.| X.| T ` ) T ",
"G +...| ;.1.0.W J ,.,.>.H | | ..( I W ) ( ( ) <...| X.Q ,.>.,.G R R ` 2.H | | @.Q | | | G ..{ +.1.( ( R X.w H L =.| ..X.R ! ) ) ",
"G  .| X.8.=.=.W G 3.6.=.H @.@.| ) T ) R R ) W >.[  .| Q >.,.>.H ) R W >.J ..| [ W O.| | G ..[ ..1.W ( (  .G L H <...| | E R R W ",
"T ) T E  .| X.| ~  . .@.Q E E W 7.) W W | +.@.;.K H w ~ @.|  .+.R ( ) | | W E W R H e P R | .. .;.W R ) W W W T [ G w J W | X.| ",
") ` R ) Q W R | ( E R R X.1.5.2.X.E R R ..} [ ..R ) ) W J G H [ ) T R *.E +...[ 5.) R R ' L H e X.R ( ( E  .X.@.P ! ~ W W | ..X.",
"R R R ) R W W | ) ( ` R ..=.>.<.[ W ` R | ..+.| ) R R ( U G w X.( ( W | W | ..X.=.W ( ) T r H L | R ` ) R [ | | e ) W ) R | [ [ ",
"( R ) ( W R ) | ) R ) Q ..5.-.1.O.R ( R ..{ .. .E ~ _ R e L e  .( _ W ..~  .{ | <.R ! ) R L H e @.T ( ( W ......r R ) I ` | ..+."
};
