/* XPM */
static char *_eafa61ba51343c1e8e96db6f6e08748AiU9W7l0Yr2xP2vU[] = {
/* columns rows colors chars-per-pixel */
"64 64 167 2 ",
"   c #352E1D",
".  c #382F1D",
"X  c #3C311D",
"o  c #343120",
"O  c #44361D",
"+  c #48361D",
"@  c #4B391D",
"#  c #543D1D",
"$  c #583E1D",
"%  c #2F4434",
"&  c #2C4C3C",
"*  c #5D411D",
"=  c #65451D",
"-  c #69461D",
";  c #724D1D",
":  c #75541E",
">  c #79541E",
",  c #467E01",
"<  c #497E01",
"1  c #4D7E0A",
"2  c #507F00",
"3  c #685520",
"4  c #7C5E20",
"5  c #4A643E",
"6  c #7C6522",
"7  c #2A5343",
"8  c #24564E",
"9  c #275D4E",
"0  c #265E50",
"q  c #25614C",
"w  c #29644D",
"e  c #2A6A4C",
"r  c #2D744B",
"t  c #2E7C49",
"y  c #327D4B",
"u  c #2D6350",
"i  c #336653",
"p  c #326A51",
"a  c #4E6D43",
"s  c #407C55",
"d  c #825E1F",
"f  c #825F20",
"g  c #836120",
"h  c #896520",
"j  c #896921",
"k  c #967422",
"l  c #9A7E24",
"z  c #39B43F",
"x  c #3DBE3F",
"c  c #468200",
"v  c #4C8301",
"b  c #4D8900",
"n  c #4D8309",
"m  c #518402",
"M  c #528A01",
"N  c #598E03",
"B  c #52840B",
"V  c #52880A",
"C  c #579401",
"Z  c #5C9501",
"A  c #579900",
"S  c #5D9A01",
"D  c #569508",
"F  c #5C940A",
"G  c #5E980A",
"H  c #4D8411",
"J  c #4F8910",
"K  c #558515",
"L  c #619603",
"P  c #629A02",
"I  c #61960A",
"U  c #629A0A",
"Y  c #629610",
"T  c #649914",
"R  c #5EA401",
"E  c #5FA901",
"W  c #5FA40B",
"Q  c #63A502",
"!  c #68A603",
"~  c #65A901",
"^  c #6AAB02",
"/  c #64A50A",
"(  c #69A60A",
")  c #66A90A",
"_  c #6AAA0B",
"`  c #70B100",
"'  c #7DBF06",
"]  c #68A615",
"[  c #6AA913",
"{  c #6BA51A",
"}  c #7FBF11",
"|  c #3FC03F",
" . c #7DC402",
".. c #7EC900",
"X. c #7EC309",
"o. c #41C43F",
"O. c #2F8547",
"+. c #2F8148",
"@. c #308647",
"#. c #328D47",
"$. c #318349",
"%. c #328A48",
"&. c #359446",
"*. c #379B45",
"=. c #389E45",
"-. c #3E9E49",
";. c #39A444",
":. c #3AAA43",
">. c #3DB442",
",. c #3FBB40",
"<. c #4C8F57",
"1. c #4D8C58",
"2. c #508F59",
"3. c #4F9357",
"4. c #509657",
"5. c #5A9C5C",
"6. c #46A74B",
"7. c #40BF40",
"8. c #46B448",
"9. c #5FA35D",
"0. c #65AC5E",
"q. c #43C142",
"w. c #4AC445",
"e. c #4DC945",
"r. c #4FC648",
"t. c #52C749",
"y. c #5AC64F",
"u. c #55C94B",
"i. c #5BCB4E",
"p. c #5CC450",
"a. c #5FCC50",
"s. c #62CE52",
"d. c #69C957",
"f. c #67D054",
"g. c #6CD257",
"h. c #6FD358",
"j. c #73D55A",
"k. c #78D75D",
"l. c #7BD95F",
"z. c #79CD61",
"x. c #7EDA60",
"c. c #A48424",
"v. c #A78824",
"b. c #AC8B24",
"n. c #B09125",
"m. c #82C502",
"M. c #86C901",
"N. c #84CA02",
"B. c #89CB04",
"V. c #82C40B",
"C. c #85CA0B",
"Z. c #89CC0B",
"A. c #89D103",
"S. c #83C412",
"D. c #88C510",
"F. c #86CB12",
"G. c #88CB18",
"H. c #8ED110",
"J. c #85DE64",
"K. c #86DE64",
"L. c #8ADF67",
"P. c #8DDB6A",
"I. c #8CE067",
"U. c #8FE169",
"Y. c #92E26A",
"T. c #94E36B",
"R. c #9BE66F",
/* pixels */
"Z S P S Q Q ^ Q S Q ! P P m.C.V.! S Y Z Z Z Z v P Z S P F P F ~ Y.Y.Y.S m.( [ Q G Z P S ! Q ~ Q S F L P Q ~ ~ W Z S G G ^ X.m.N.",
"P P Z Z S S S Z / S Z U G v , v S C 9 9 n v M V.9 8 8 8 v m x t.U.j.t.7.^ v c b I P Y.Y.v V.V.Z.~ I P L S ~ ~ ~ P Z S Z ~ ! ! Q ",
"Z L L L Z C I I ! S Z S P , , m P 9 9 9 v v v N.9 s 2.<., | x q.g.g.t.q./ , v v Z Y.Y.Y., Z.....Q G Z L G Q Q ~ Z C P S Q R ~ ~ ",
"Z L Z P S S P L Q P I C G V V 9 9 F C Z K , v N.w 9.P.K.w.q.w.w.q.h.g.w.K.v M Y.U Y.Y.Y.Y.V.N.C.^ F Z I I Q Q ~ I L L I ^ ~ ~ Q ",
"S Z C S Q ~ Q Z P v v v 9  .N.9 9 &.o.q.m.7.o.>.e u 5.K.w.g.L.l.w.q.q.w.K.Y.Y.Y.Y.C I Y.S Y.Y.R  .M v m F C S S Z L Z I  .~ Q / ",
"S S G Z Q Q / G P v v v 9 9 9 9 9 =.o.7.x x | >.e t 8.i.q.k.R.Y.l.t.x w.K.T.T.Y.Y.Y.k.i.q.x.T.Q C.v , , I S S P P Z L S Z.~ Q Q ",
"S Z U Z ~ ~ ~ C F v v c 9 9 9 9 9 $.:.q.i.s.u.>.%.:.o.x 7.s.k.j.k.u.x w.K.K.j.k.U.Y.x.u.q.g.R.~ m.v v m P S G Z C Z Z S V.~ _ Q ",
"P Z L P X.N.C.~ S / Q ~ V.9 w e e 9 t w.K.U.g.7.,.7.7.7.7.7.7.7.7.7.x w.K.s.x w.K.Y.Y.K.w.~ ~ K.Y.G L Z Z S G P Q V.B.V.Q v v v ",
"Q v m v Q R ^ V.v Q _ R 9 9 t >.>.t t w.K.f.q.7.7.7.7.7.7.7.7.7.7.7.x w.K.s.x w.K.Y.Y.K.w.x q.u.L.Y.Y.v ! n v v ! N.V.X.Q S S I ",
"C.P P C P D S N.n ~ Q ^ 9 9 $.o.o.:.;.q.i.w.x x x s.l.h.q.x x 7.q.x t.l.Y.K.a.w.L.j.i.a.j.j.j.k.Y.Y.Y.! N.I Z C v m.N.C.! S P G ",
"m.Z P Z S S Z B.H ~ Q Q 9 9 r &.&.>.q.,.x t.s.i.i.g.k.j.s.a.t.,.*.>.u.k.j.k.s.w.g.t.q.s.I.T.T.Y.Y.Y.~ Q m.S P P , C.N.N.Q N P Z ",
"Z.U F T I U Z V.v Q / 9 9 9 w e p ;.o.7.7.g.I.Y.Y.s.w.u.K.T.j.>.r &.,.q.w.q.7.7.7.x i.Y.Y.Y.Y.Y.Y./ Q Q V.Z Z Z v S.N.m._ G P Z ",
"Q  .A. .Z P G ! Z 9 9 S 9 9 t 8.z.y.x 7.7.q.s.Y.Y.L.K.K.Y.T.j.7.>.$.@.w.l.i.x 7.7.x i.Y.Y.Y.Y.Y.Y.Y.Y.Y.V.~ ) Q v Q Q Q P Z Z Z ",
"Q ~ E ) v v v S ~ 9 9 _ 9 9 +.e.I.s.x w.h.r.i.Y.Y.Y.Y.Y.Y.T.j.x o.t t q.i.w.x x x x w.s.L.j.j.T.T.T.Y.Y.~ Q Q E Q S S Z Z I Z P ",
"] / Q Q v m v S ~ 9 9 Q 9 9 e 6.K.s.x w.h.f.j.Y.Y.Y.Y.Y.Y.Y.x.i.q.&.&.,.x t.s.i.i.w.q.s.L.i.w.j.j.j.x.Y.Q Y.Y.~ ! S S S P P C C ",
"Q Q ~ Q 1 B 1 S / e w 9 9 w e y z.i.x 7.7.j.T.Y.L.U.U.K.K.U.Y.K.w.x 7.7.7.g.U.Y.Y.s.s.Y.Y.s.w.w.w.w.s.Y.Y.Y.Y.~ ! Z S S Z S P P ",
"S Q ! Q v v v 9 9 &.&.9 9 &.>.>.w.q.,.,.7.j.T.K.u.k.l.w.w.k.T.K.w.x 7.7.7.q.s.Y.Y.L.L.Y.Y.L.K.K.K.K.L.Y.Y.S S S ! S Z Z G P P F ",
"S G G U S P Z w &.,.,.&.w r +.O.z | 7.,.7.t.a.i.q.j.U.g.q.j.K.u.7.x 7.7.7.x w.i.i.i.j.Y.T.Y.Y.Y.Y.Y.Y.Y.Y.Y.Y.Y.Y.C P P G v v v ",
"P Z Z Z P Z Z e &.=.*.&.w 8 i 3.p.w.| 7.7.x x x x s.k.h.w.k.K.i.i.w.x 7.7.7.x q.i.q.w.j.j.K.Y.Y.Y.Y.Y.U.k.K.T.Y.Y.P P P Z v n v ",
"S P P S S C G Z 9 9 w e 9 q 4.Y.Y.p.>.7.q.7.7.q.w.q.7.7.7.g.L.L.U.i.x 7.q.q.x w.l.s.w.w.w.k.Y.Y.Y.Y.Y.K.w.g.L.m.Y.C G I Z v v v ",
"S / Q Q ~ ! Q S 9 9 y ;.e #.p.Y.Y.3.O.7.7.7.x w.l.i.x 7.7.w.w.u.K.a.x 7.7.7.7.7.w.j.K.K.K.U.Y.Y.Y.Y.Y.K.w.q.s.Y.Y.S P C P N P I ",
"S ! ~ ~ Q Q Q 9 9 9 $.,.;.>.8.1.1.i t ,.%.;.| w.L.K.k.h.w.x x q.i.e.:.$.$.y &.o.x t.s.a.i.x.T.U.s.l.T.U.k.j.x.Y.Y.S S P P T S Z ",
"S ! Q Q ~ Q _ 9 9 r &.q.o.:.+.9 t +.#.&.w &.o.w.g.k.k.h.w.x q.,.=.*.$.9 9 9 e *.,.| x 7.i.K.L.g.q.j.T.Y.Y.T.Y.Y.Y.S Z F S F P P ",
"Z G C S  .N.C.9 9 *.7.>.>.t 9 e ;.>.&.9 9 &.,.7.7.7.7.7.7.7.o.>.e 9 9 9 9 9 w r :.7.x w.l.Y.j.q.w.k.Y.Y.Y.Y.Y.Y.B.v v V B.Z U F ",
"V.v v v ~ R ~ 9 9 =.;.e e w 9 9 e e w 9 9 w %.7.7.7.7.7.7.7.q.>.e 9 9 9 9 9 t ;.r *.o.q.w.l.j.w.l.U.Y.Y.Y.Y.Y.Y.Y.Y.Y.~ C.L L P ",
"N.v m , ~ R ~ 9 9 r r 9 9 9 9 9 9 9 r =.=.r t q.q.7.q.q.o.q.q.7.;.r 9 9 9 9 e t q &.u.h.w.t.t.q.i.K.T.I.s.u.j.Y.Y.Y.Y.~ C.C Z Z ",
"V.< < , ^ Q Q 9 9 9 9 9 9 r r 9 9 9 r *.=.r r ;.,.o.>.&.&.>.>.*.=.r 9 9 9 9 9 9 9 6.d.0.-.>.| o.x j.L.j.s.i.s.k.U.Y.Y.~ V.P P Z ",
"! V.N.N.Q _ Q N.9 9 9 9 9 =.=.9 e w 9 9 9 9 9 e ;.>.&.9 9 &.&.9 9 9 9 9 e e w 9 9 0.0.9 9 *.7.>.7.h.g.w.l.Y.j.w.K.Y.Y.Q ~ C Z P ",
"v C.B.m.v v v / 9 9 9 9 9 =.*.e ;.y 9 9 9 9 9 9 e e w 9 9 w w 9 9 9 9 e ;.>.&.9 9 i i 9 9 *.;.r >.w.w.7.w.l.j.w.K.b b b Q S S C ",
"B m.N.N.v , v 9 9 9 9 9 9 =.,.;.7.$.9 9 9 9 9 9 9 9 9 9 9 9 9 9 9 $.;.;.,.o.>.&.w 9 9 w &.>.>.=.,.| o.q.x t.t.q.Q , n < _ Z P I ",
"v m.N.N.v B v 9 9 9 9 9 9 $.=.*.&.r 9 9 9 9 9 9 9 r r 9 9 9 9 9 9 $.;.;.,.;.:.>.e 9 9 w &.>.o.o.q.:.&.;.,.| x 7.~ v m v ! S S F ",
"P v H c Q { Q 9 9 9 9 9 9 9 9 9 9 9 9 9 9 9 9 9 9 &.&.9 9 9 9 9 9 9 9 e ;.$.$.;.e 9 9 9 9 &.>.>.>.t 9 e ;.Z C 7.7.C P L Z G S P ",
"S Q Q ~ ~ E ~ N.9 9 9 9 9 9 9 9 9 9 9 9 9 9 9 9 9 w w 9 9 9 9 9 9 9 9 9 e &.&.e 9 9 9 9 9 w e e e w 9 9 e L Z 7.Z P L C V Z Z L ",
"S _ Q Q E ~ ~ N.9 9 9 9 9 9 9 9 9 9 9 9 9 9 r =.=.&.&.&.w 9 9 9 9 9 9 9 9 r r 9 9 9 9 9 9 9 9 8 9 $.$.9 9 9 r Z Z Z Z U , Z P Z ",
"C / ! Q Q ) _ N.9 S 9 9 9 9 9 9 9 9 9 9 9 9 r =.*.>.o.,.%.e 9 9 9 9 9 9 9 9 9 9 9 9 9 9 9 9 e t w *.>.y w 9 Z G G S Z S b S Z I ",
"P S Z Z Q ~ S ~ S 9 9 9 9 9 9 9 9 9 9 9 9 9 9 9 e ;.7.>.,.$.9 9 9 9 9 9 9 9 9 9 9 9 9 9 9 9 $.>.r =.7.;.e Z I G S ^ Q Q S F.C.m.",
"L L P Z S S S ..v 9 9 9 9 9 9 9 9 9 9 9 9 9 9 e ;.q.*.r >.$.9 9 9 9 9 9 9 9 9 9 9 9 9 9 9 9 $.,.>.,.;.e 9 9 9 Z S S ^ ~ G.~ Q ~ ",
"Z v , v Q ~ Q V.Z 9 9 9 9 9 9 9 9 9 9 9 9 9 9 w y $.r w t e 9 9 9 9 9 9 9 9 9 9 9 9 9 9 9 9 e $.$.$.t m.Q U P Z G Z G U v Q ~ R ",
"I v v b / ~ Q N.P 9 9 9 9 9 9 9 9 9 9 9 9 9 9 9 9 9 9 9 9 9 9 9 9 9 9 9 9 9 9 9 9 9 9 9 9 9 9 9 9 9 9 C.! Z C P L P Z S c Q ~ ) ",
"G v v v Q ~ Q N.9 9 9 9 9 9 9 9 9 9 9 9 9 9 9 9 9 9 9 9 9 9 9 9 9 9 9 9 9 9 9 9 9 9 9 9 9 9 9 9 9 9 9 9 9 Z G L Z P L F M Q Q R ",
"P V.C...Z L S Q S P P Z v 9 9 9 9 9 9 9 9 9 9 9 9 9 9 9 9 9 9 Z I P I 9 9 9 9 9 9 9 9 9 9 9 9 9 b Q ^ Q S Z S Z S / R ~ C P L C ",
"D.^ Q Q U L G v ~ S L I 9 9 9 Q ^ 9 9 9 9 9 0 0 0 0 9 9 9 9 Y P Z Z Z ` % & & % 9 9 9 9 9 9 9 9 F S S P Z I P P V.^ ~ ~ S Z P S ",
"m.R ~ Q P P P , Q Z L I 9 9 Q ) S S 9 9 9 7 & & & 5 a 9 9 P Z P Z Z Z Q       o % 7 9 9 9 9 9 9 U Z Z I L Z Z Z V.R ~ _ S C Z C ",
"Z.~ ~ Q C P S v ^ S S C v Q ~ Q _ Z Z S Z         6 b.[ 9 I G C Z P S Q           V.C.Z.! 9 9 P P Z P Z F P P U C.~ Q Q S G P I ",
"V.Q ~ ~ Z Z S Q V.S A P S Q Q Q v F G P !         * > c N.V.N.B.Z Z S           V.^ Q S S S S Z U P Z S Z C.N. .Q b v v S F F U ",
") c v v I I Z v B.Q Q / Z v v v S S Z P S Z       $ d n.Q _ Q Q Z Z           Z Q c V n C v v v ~ F.S.V.v m.N.Z.~ Z P Z m.P Z Z ",
"Q v V , Z Z P ,  .Q ^ _ Z < B n Z P Z P I S S     + : k Q R ~ Q P           Z L ~ v v v P v v v ~ N.m.N.v Z...m.Q G I L N.C S P ",
"Q , , v P Z P , N./ ~ / P 2 m v L L Z U C Z S       + = = ~ ~ /           S Z I Q b v v P , v v ~  .N.N.v V.N.C.~ G C L m.S U Z ",
"v Z L P D S S L Q ~ R ) Z U L S ! Q E Q Z L Z         X X * *           Q G C P Z P Z S Z P G S P V.B.V.v Q Q ! v F S S (  .C...",
"S D.Z.m.Q ^ ! Z b ~ R ~ S G Z S m.~ ~ ~ P L Z Q           O O           Z.Z S Z P N I U V.Q Q ~ G Z S S ] S S F Z Q Q Q Z B.m.N.",
"S m.m.N.Q ~ ! S < _ Q Q P L G S B.R E Q Z Z S _                     X + N.C G S L I L Z N.Q ~ ~ P P S Z ! C Z S P Q ^ ~ S N.C.N.",
"S ..Z.Z.Q Q / S c Q ! Q S Z C G N.Q ~ Q S L S S           X X X   . # : N.Z U S L P S S C.Q Q R C Z Z U Q P P Z C ~ Q R C N.B.N.",
"S.~ S ~ S S C S S v , b Q C.B.B.N.Q Q Q S Z S v           # - * X # 4 c.m.! Q Q , V.V. .Q S S Z I v , v Q C U F G Q ~ ^ { v v n ",
"~ Q ] Q Z S S Q N.Z I U Q N.m.N.m.P S S S C G , ~         O * = X $ > g ! C...C.J ..N.N.[ , v v S Q Q ( N.S Z P G H. ...Q S Z Z ",
"~ Q W ~ S L Z ~ N.Z Z Z Q N.B.B.C.Z Z Z P Z L m )           @ = X $ > f Q N.N.m., N.m.N.Q v V B Z ! ~ ~ N.S F Z Z N.N.N.! Z P Z ",
"Q ^ R ^ Z P Z Q m.P L S ) ..N.N.B.Z U L L I Z v /           @ = X @ g b.! N.V.V.m B.m.N.^ c v , S R ~ ~ N.C I Z P m.m.N./ G L L ",
"/ S S C S S Z m ( N.m.m.S N.N.C.v Q ~ Q G I Z ~ v           @ = X   3 b.Z Q ~ ~ Z C.m.Z.v C.m.N.P F P G ~ v v m N.X.N.C.v I Z P ",
"v Q ! _ S.m.S.C v m.C.D.v Q Q Q I S S S Z Z P V.Q           X + . + 4 c.> ~ ~ R S Q Q Q n Q Q / V.U L Z ! c v v N.Q ~ Q C P P N ",
"v ! ~ R X.N.H.Z v m.N.N.v Q Q ~ Z C S P P L P N.~                 $ h v.j > ~ ) F Q Q Q n Q ~ ~ Z.S Z Z ^ , v V ..Q Q ! Z C S I ",
"v / Q ^ F...m.S v C.B.' v / _ Q P C I Z S P P m.                  $ g c.b.g - Q S _ Q Q c Q Q ~ C.S P I Q v v v N.! Q ! S G Z S ",
"C S C S Q Q ~ Q F ! Q _ C C C S } P G S Q ( /                     $ ; : Q S S S Z v v M S Q ~ Q X.P Z L S S S C R v < v S Q ! Q ",
"P U G S Z S S Q P S C Z ! N.Z.V.^ Z Z Z Q )                   X $ - * # l / Q R Z.P F C I m v , ^ S L L Z ~ ! ~ M F G G S Q ~ ~ ",
"Z Z Z Z Z S S Q P P U S ~ m.m.C.R S U G Q ~                   X - ; @ O j c.~ ^ m.S Z P C v v v Q S U P Z Q Q Q , P P P Z Q R R ",
"L Z P L P Z P Q Z G G C Q Z.m.N./ S Z L ~ E ~ ~ S F U         ! Z I Z X = k n.Q N.Z F P S v v v ) Z L Z S ~ ~ Q 1 L P N U Q ~ ) "
};
